<?xml version="1.0" encoding="UTF-8"?>
<svg id="a" xmlns="http://www.w3.org/2000/svg" viewBox="0 0 40.13 32">
  <defs>
    <style>
      .b {
        fill: #333;
        opacity: .02;
        transform: rotate(-15deg) translate(15%, 40%) scale(.9);
      }
    </style>
  </defs>
  <path class="b"
    d="M38.67,7.47c-2.09-2.12-5.56-1.75-7.6,.41-2.65,2.79-4.72,3.83-7.18,3.72-3.44-.15-5.13-2.8-6.9-6.15C15.16,1.95,12.35,0,8.83,0,3.31,0,0,4.47,0,9.46c0,7.68,5.39,12.27,9.13,14.2,3.1,1.61,6.56,2.29,9.63,2.37-.18,1.84-.72,4.26-1.32,5.97h6.32c-.62-1.71-1.18-4.33-1.34-6.17,9.26-1.2,13.65-5.41,16.06-9.41,1.08-1.76,1.66-3.58,1.65-5.22,0-1.44-.47-2.74-1.46-3.73ZM8.88,12.27c-1.8,.11-3.32-1.24-3.44-3.02-.11-1.78,1.23-3.32,3.03-3.44,1.78-.11,3.31,1.25,3.42,3.03,.11,1.78-1.23,3.32-3.01,3.43Z" />
</svg>