<?xml version="1.0" encoding="UTF-8"?><svg id="a" xmlns="http://www.w3.org/2000/svg" viewBox="0 0 540.57 80"><defs><style>.b{fill:#fff;}.c{fill:#61a60e;}</style></defs><g><g><g><polygon class="b" points="176.59 75.41 176.59 65.79 173.13 65.79 173.13 75.41 170.76 75.41 170.76 65.79 167.3 65.79 167.3 75.41 162.61 75.41 162.61 78.13 184.02 78.13 184.02 75.41 176.59 75.41"/><path class="b" d="M178.54,72.78h2.26c.85-4.35,1.44-9.78,1.8-13.42,.19-1.97,.2-2.99-1.57-2.99h-16.11v2.71h13.61v13.69Z"/></g><g><polygon class="b" points="200.05 75.41 200.05 70.78 196.18 70.78 196.18 75.41 187.35 75.41 187.35 78.13 208.75 78.13 208.75 75.41 200.05 75.41"/><path class="b" d="M203.6,69.32c1.6,0,2.15-.89,2.15-2.15v-11.03h-3.87v4.47h-7.66v-4.47h-3.86v11.03c0,1.27,.55,2.15,2.14,2.15h11.1Zm-9.38-2.33v-3.67h7.66v3.67h-7.66Z"/></g><g><path class="b" d="M251.88,70.88c-1.42-.92-3.2-1.32-5.13-1.32s-3.7,.39-5.12,1.32c-1.56,1.01-2.28,2.38-2.28,3.9s.72,2.9,2.28,3.9c1.42,.92,3.2,1.31,5.12,1.31s3.71-.4,5.13-1.31c1.56-1.01,2.28-2.38,2.28-3.9s-.72-2.89-2.28-3.9Zm-2.4,5.75c-.71,.59-1.68,.85-2.73,.85s-2.01-.26-2.73-.85c-.64-.53-.83-1.16-.83-1.85s.19-1.32,.83-1.85c.72-.59,1.68-.84,2.73-.84s2.02,.25,2.73,.84c.65,.53,.83,1.16,.83,1.85s-.19,1.32-.83,1.85Z"/><polygon class="b" points="250.36 55.3 250.36 58.23 247.44 58.23 247.44 60.94 250.36 60.94 250.36 62.78 247.44 62.78 247.44 65.5 250.36 65.5 250.36 68.96 254.22 68.96 254.22 55.3 250.36 55.3"/><path class="b" d="M244.05,67.79c1.6,0,2.15-.89,2.15-2.16v-9.26h-10.55v9.26c0,1.27,.55,2.16,2.15,2.16h6.25Zm-1.72-8.7v5.99h-2.82v-5.99h2.82Z"/></g><g><path class="b" d="M219.46,68.4l1.74-1.31c-2.86-3.25-3.68-6.61-3.68-10.95h-3.59c0,4.34-.82,7.71-3.69,10.95l1.74,1.31c1.72-1.5,2.81-3.1,3.73-5.05,.93,1.95,2.01,3.55,3.74,5.05Z"/><path class="b" d="M228.04,71.07c-1.42-.9-3.2-1.29-5.13-1.29s-3.71,.39-5.13,1.29c-1.56,.99-2.27,2.33-2.27,3.82s.71,2.84,2.27,3.83c1.42,.9,3.2,1.29,5.13,1.29s3.71-.39,5.13-1.29c1.56-.99,2.27-2.33,2.27-3.83s-.71-2.83-2.27-3.82Zm-2.4,5.6c-.71,.57-1.68,.81-2.73,.81s-2.02-.25-2.73-.81c-.65-.51-.83-1.11-.83-1.78s.18-1.27,.83-1.78c.71-.56,1.68-.81,2.73-.81s2.02,.25,2.73,.81c.64,.51,.84,1.11,.84,1.78s-.19,1.27-.84,1.78Z"/><polygon class="b" points="226.92 55.3 226.92 60.36 225.48 60.36 225.48 55.3 222.02 55.3 222.02 68.76 225.48 68.76 225.48 63.07 226.92 63.07 226.92 68.76 230.38 68.76 230.38 55.3 226.92 55.3"/></g></g><g><path class="b" d="M70.17,49.22c-3.93,0-7.39,1.28-9.73,3.67-2.68,2.64-4.15,6.8-4.15,11.7s1.47,9.05,4.15,11.7c2.34,2.4,5.8,3.71,9.73,3.71s7.44-1.31,9.78-3.71c2.63-2.64,4.1-6.8,4.1-11.7s-1.47-9.06-4.1-11.7c-2.34-2.39-5.84-3.67-9.78-3.67Zm5.63,23.86h0c-1.29,1.64-3.31,2.57-5.63,2.57s-4.35-.94-5.59-2.57c-1.44-1.78-2.2-4.75-2.2-8.49s.76-6.67,2.2-8.5c1.24-1.64,3.31-2.53,5.59-2.53s4.35,.89,5.63,2.53c1.44,1.83,2.18,4.75,2.18,8.5s-.74,6.71-2.18,8.49Z"/><path class="b" d="M146.2,52.89c-2.35-2.39-5.85-3.67-9.78-3.67s-7.39,1.28-9.75,3.67c-2.66,2.64-4.12,6.8-4.12,11.7s1.46,9.05,4.12,11.7c2.36,2.4,5.82,3.71,9.75,3.71s7.43-1.31,9.78-3.71c2.64-2.64,4.1-6.8,4.1-11.7s-1.46-9.06-4.1-11.7Zm-4.14,20.19h0c-1.29,1.64-3.31,2.57-5.63,2.57s-4.35-.94-5.6-2.57c-1.43-1.78-2.19-4.75-2.19-8.49s.76-6.67,2.19-8.5c1.25-1.64,3.32-2.53,5.6-2.53s4.35,.89,5.63,2.53c1.44,1.83,2.17,4.75,2.17,8.5s-.73,6.71-2.17,8.49Z"/><path class="b" d="M42.57,79.29c-.34-.31-.75-1.01-.75-2.06v-10.67l9.96-16.69h-6.82c.49,.49,.54,1.28-.06,2.22l-5.39,9.34c-4.54-8.21-4.53-8.44-5.35-9.94-.64-1.13-1.19-1.62-2.4-1.62h-5.37c.42,.39,.86,.99,1.78,2.52l7.94,14.09v10.75c0,1.05-.41,1.75-.74,2.06h7.19Z"/><path class="b" d="M93.55,79.29c.34-.31,.74-1.01,.74-2.06v-25.31c0-1.05-.41-1.75-.74-2.06h9.74c4.68,0,8.75,2.26,8.75,6.63,0,1.85-.85,4.48-3.01,5.64,2.62,1,5.4,3.42,5.4,7.53,0,3.04-1.51,5.71-3.54,7.24-1.88,1.42-4.05,2.38-7.6,2.38h-9.74Zm6.45-18.31c1.06,.12,3.23-.01,4.16-.5,.93-.48,2-1.2,2-3.05s-1.54-3.32-3.8-3.32c-.84,0-1.54,.04-2.36,.3v6.57Zm6.38,13.36c1.69-1.08,2.08-2.66,2.08-4.32,0-3.22-2.84-4.71-5.57-4.71-.59,0-2,.02-2.89,.17v9.43c1.88,.52,4.88,.39,6.38-.57Z"/><path class="b" d="M.75,77.23c0,1.05-.41,1.75-.75,2.06H7.19c-.34-.31-.74-1.01-.74-2.06v-11.49l8.36,11.93c.77,1.13,1.37,1.62,2.58,1.62h5.77c-.47-.4-.98-.99-2.08-2.52l-9.43-13.36,9.64-13.54h-7.09c.37,.48,.41,1.08-.28,2.24l-7.48,10.78v-10.96c0-1.05,.41-1.75,.74-2.06H0c.34,.3,.75,1.01,.75,2.06v25.31Z"/></g><path class="c" d="M159.79,9.58c-2.68-2.72-7.12-2.25-9.74,.53-3.4,3.57-6.05,4.91-9.2,4.77-4.4-.19-6.58-3.59-8.84-7.89-2.35-4.49-5.96-6.99-10.46-6.99-7.08,0-11.32,5.73-11.32,12.13,0,9.84,6.91,15.72,11.7,18.2,3.98,2.07,8.41,2.93,12.34,3.03-.23,2.36-.93,5.46-1.69,7.65h8.1c-.8-2.19-1.51-5.55-1.72-7.91,11.86-1.54,17.5-6.93,20.59-12.06,1.38-2.25,2.12-4.59,2.11-6.69,0-1.84-.6-3.51-1.87-4.78Zm-38.19,6.15c-2.3,.14-4.26-1.59-4.41-3.87-.14-2.28,1.58-4.26,3.88-4.4,2.28-.15,4.24,1.6,4.38,3.88,.15,2.28-1.58,4.25-3.86,4.4Z"/></g><g><path class="b" d="M422.05,44.54v3.94h-22.62v1.42h22.51v3.9h-22.51v1.68h22.95v3.87h-11.71v2.48h13.17v3.9h-31.6v-3.9h13.03v-2.48h-6.09c-1.8,0-3.1-.33-3.9-.99-.83-.68-1.24-1.79-1.24-3.32v-10.51h28.02Zm-3.39,24.01c2.31,1.26,3.47,2.82,3.47,4.67s-1.15,3.37-3.47,4.63c-2.58,1.44-6.04,2.15-10.4,2.15s-7.95-.72-10.51-2.15c-2.29-1.26-3.43-2.81-3.43-4.63s1.14-3.41,3.43-4.67c2.55-1.41,6.06-2.12,10.51-2.12s7.82,.71,10.4,2.12Zm-16.86,2.74c-1.39,.53-2.08,1.19-2.08,1.97,0,.73,.69,1.35,2.08,1.86,1.58,.58,3.75,.88,6.49,.88s4.72-.29,6.28-.88c1.39-.51,2.08-1.13,2.08-1.86,0-.78-.69-1.44-2.08-1.97-1.53-.56-3.62-.84-6.28-.84s-4.91,.28-6.49,.84Z"/><path class="b" d="M439.06,46v-2.26h5.4v2.26h7.44v3.72h-5.55c2.31,.61,3.94,1.65,4.89,3.14,.88,1.36,1.09,2.98,.66,4.85-.49,1.63-1.57,2.98-3.25,4.05-1.9,1.22-4.23,1.82-7.01,1.82s-5.14-.62-7.04-1.86c-1.65-1.09-2.71-2.43-3.17-4.01-.46-1.87-.27-3.49,.58-4.85,.95-1.48,2.58-2.53,4.89-3.14h-5.51v-3.72h7.66Zm.84,19.81v2.37h15.76v-2.37h5.4v9.48c0,1.88-1.52,3.4-3.4,3.4h-19.4c-1.17,0-2.09-.33-2.77-.99-.66-.61-.99-1.41-.99-2.41v-9.49h5.4Zm-2.01-12.55c-.8,.71-1.2,1.58-1.2,2.63s.4,1.88,1.2,2.66c.95,.88,2.2,1.31,3.76,1.31s2.82-.44,3.79-1.31c.85-.78,1.28-1.67,1.28-2.66s-.43-1.92-1.28-2.63c-.95-.8-2.21-1.2-3.79-1.2s-2.83,.4-3.76,1.2Zm2.01,18.86v2.63h15.76v-2.63h-15.76Zm21.16-28.2v8.28h3.68v4.01h-3.68v7.63h-5.4v-19.92h5.4Z"/><path class="b" d="M494.89,43.92h5.4v9.96h3.68v4.16h-3.68v11.27h-5.4v-5.47h-24.59v-3.94h4.38v-6.6h5.4v6.6h3.94c.22-1.07,.39-2.13,.51-3.17,.12-1.09,.18-2.3,.18-3.61v-4.49h-13.17v-3.98h18.53v7.19c0,1.51-.32,2.92-.61,4.16-.34,1.48-.85,2.74-1.17,3.9h6.59v-15.98Zm-15.76,30.79h21.38v3.94h-22c-1.73,0-2.97-.3-3.72-.91-.71-.61-1.06-1.59-1.06-2.96v-7.95h5.4v7.88Z"/><path class="b" d="M524.48,44.65v3.87h-4.45v10.36c0,3.11,.64,5.98,1.93,8.61,1.19,2.36,2.83,4.37,4.93,6.02l-3.17,2.96c-1.78-1.44-3.2-2.89-4.27-4.38-1.02-1.44-1.73-2.91-2.12-4.41-.53,1.63-1.3,3.16-2.3,4.6-1.17,1.61-2.59,3-4.27,4.2l-2.55-2.96c1.97-1.46,3.52-3.43,4.63-5.91,1.19-2.6,1.79-5.49,1.79-8.65v-10.43h-4.52v-3.87h14.38Zm7.92-.73v35.1h-5.4v-18.64h-4.78v-3.9h4.78v-12.55h5.4Zm8.17,0v35.1h-5.4V43.92h5.4Z"/><path class="b" d="M343.41,63.23c-.22-4.72-.46-10.4-.44-15.38h-.15c-1.21,4.48-2.73,9.41-4.31,14.04l-5.37,15.82h-2.69c-1.45,0-2.73-.94-3.17-2.33l-4.12-13.27c-1.43-4.69-2.74-9.66-3.7-14.26h-.12c-.16,4.78-.38,10.63-.66,15.6l-.81,14.69h-7.86c1.19-1.79,1.9-3.87,2.04-6.01l2.03-30.54h8.77l4.76,14.68c1.31,4.32,2.48,8.66,3.36,12.73h.16c.98-3.99,2.24-8.46,3.65-12.76l5.07-14.65h8.66l1.72,30.01c.13,2.31,.82,4.56,2,6.55h-8.13l-.71-14.91Z"/><path class="b" d="M360.22,70.85c2.15,1.24,5.43,2.33,8.83,2.33,4.26,0,6.64-2,6.64-4.99,0-2.76-1.85-4.39-6.48-6.07-6.04-2.14-9.9-5.38-9.9-10.62,0-5.99,5.01-10.5,12.94-10.5,3.96,0,6.86,.84,8.76,1.81l-1.6,5.39c-1.32-.69-3.87-1.74-7.3-1.74-4.24,0-6.04,2.26-6.04,4.4,0,2.8,2.11,4.12,6.99,5.99,6.35,2.42,9.4,5.61,9.4,10.86,0,5.88-4.43,10.98-13.86,10.98-3.87,0-7.88-1.1-9.88-2.32l1.48-5.53Z"/><path class="b" d="M275.44,42.13h7.23l12.1,21.49c.36,.65,.76,1.47,1.2,2.43,.44,.97,.79,2.02,1.06,3.17v-27.09h5.9v35.45h-3.84c-2.09,0-4.02-1.13-5.05-2.95l-10.48-18.59c-.46-.79-.89-1.64-1.28-2.56-.39-.92-.71-1.88-.93-2.9v25.22c0,.98-.8,1.78-1.78,1.78h-5.4c.84-1.75,1.28-3.67,1.28-5.62v-29.84Z"/></g></svg>