<?xml version="1.0" encoding="UTF-8"?><svg id="a" xmlns="http://www.w3.org/2000/svg" viewBox="0 0 254.22 80"><defs><style>.b{fill:#fff;}.c{fill:#61a60e;}</style></defs><g><g><polygon class="b" points="176.59 75.41 176.59 65.79 173.13 65.79 173.13 75.41 170.76 75.41 170.76 65.79 167.3 65.79 167.3 75.41 162.61 75.41 162.61 78.13 184.02 78.13 184.02 75.41 176.59 75.41"/><path class="b" d="M178.54,72.78h2.26c.85-4.35,1.44-9.78,1.8-13.42,.19-1.97,.2-2.99-1.57-2.99h-16.11v2.71h13.61v13.69Z"/></g><g><polygon class="b" points="200.05 75.41 200.05 70.78 196.18 70.78 196.18 75.41 187.35 75.41 187.35 78.13 208.75 78.13 208.75 75.41 200.05 75.41"/><path class="b" d="M203.6,69.32c1.6,0,2.15-.89,2.15-2.15v-11.03h-3.87v4.47h-7.66v-4.47h-3.86v11.03c0,1.27,.55,2.15,2.14,2.15h11.1Zm-9.38-2.33v-3.67h7.66v3.67h-7.66Z"/></g><g><path class="b" d="M251.88,70.88c-1.42-.92-3.2-1.32-5.13-1.32s-3.7,.39-5.12,1.32c-1.56,1.01-2.28,2.38-2.28,3.9s.72,2.9,2.28,3.9c1.42,.92,3.2,1.31,5.12,1.31s3.71-.4,5.13-1.31c1.56-1.01,2.28-2.38,2.28-3.9s-.72-2.89-2.28-3.9Zm-2.4,5.75c-.71,.59-1.68,.85-2.73,.85s-2.01-.26-2.73-.85c-.64-.53-.83-1.16-.83-1.85s.19-1.32,.83-1.85c.72-.59,1.68-.84,2.73-.84s2.02,.25,2.73,.84c.65,.53,.83,1.16,.83,1.85s-.19,1.32-.83,1.85Z"/><polygon class="b" points="250.36 55.3 250.36 58.23 247.44 58.23 247.44 60.94 250.36 60.94 250.36 62.78 247.44 62.78 247.44 65.5 250.36 65.5 250.36 68.96 254.22 68.96 254.22 55.3 250.36 55.3"/><path class="b" d="M244.05,67.79c1.6,0,2.15-.89,2.15-2.16v-9.26h-10.55v9.26c0,1.27,.55,2.16,2.15,2.16h6.25Zm-1.72-8.7v5.99h-2.82v-5.99h2.82Z"/></g><g><path class="b" d="M219.46,68.4l1.74-1.31c-2.86-3.25-3.68-6.61-3.68-10.95h-3.59c0,4.34-.82,7.71-3.69,10.95l1.74,1.31c1.72-1.5,2.81-3.1,3.73-5.05,.93,1.95,2.01,3.55,3.74,5.05Z"/><path class="b" d="M228.04,71.07c-1.42-.9-3.2-1.29-5.13-1.29s-3.71,.39-5.13,1.29c-1.56,.99-2.27,2.33-2.27,3.82s.71,2.84,2.27,3.83c1.42,.9,3.2,1.29,5.13,1.29s3.71-.39,5.13-1.29c1.56-.99,2.27-2.33,2.27-3.83s-.71-2.83-2.27-3.82Zm-2.4,5.6c-.71,.57-1.68,.81-2.73,.81s-2.02-.25-2.73-.81c-.65-.51-.83-1.11-.83-1.78s.18-1.27,.83-1.78c.71-.56,1.68-.81,2.73-.81s2.02,.25,2.73,.81c.64,.51,.84,1.11,.84,1.78s-.19,1.27-.84,1.78Z"/><polygon class="b" points="226.92 55.3 226.92 60.36 225.48 60.36 225.48 55.3 222.02 55.3 222.02 68.76 225.48 68.76 225.48 63.07 226.92 63.07 226.92 68.76 230.38 68.76 230.38 55.3 226.92 55.3"/></g></g><g><path class="b" d="M70.17,49.22c-3.93,0-7.39,1.28-9.73,3.67-2.68,2.64-4.15,6.8-4.15,11.7s1.47,9.05,4.15,11.7c2.34,2.4,5.8,3.71,9.73,3.71s7.44-1.31,9.78-3.71c2.63-2.64,4.1-6.8,4.1-11.7s-1.47-9.06-4.1-11.7c-2.34-2.39-5.84-3.67-9.78-3.67Zm5.63,23.86h0c-1.29,1.64-3.31,2.57-5.63,2.57s-4.35-.94-5.59-2.57c-1.44-1.78-2.2-4.75-2.2-8.49s.76-6.67,2.2-8.5c1.24-1.64,3.31-2.53,5.59-2.53s4.35,.89,5.63,2.53c1.44,1.83,2.18,4.75,2.18,8.5s-.74,6.71-2.18,8.49Z"/><path class="b" d="M146.2,52.89c-2.35-2.39-5.85-3.67-9.78-3.67s-7.39,1.28-9.75,3.67c-2.66,2.64-4.12,6.8-4.12,11.7s1.46,9.05,4.12,11.7c2.36,2.4,5.82,3.71,9.75,3.71s7.43-1.31,9.78-3.71c2.64-2.64,4.1-6.8,4.1-11.7s-1.46-9.06-4.1-11.7Zm-4.14,20.19h0c-1.29,1.64-3.31,2.57-5.63,2.57s-4.35-.94-5.6-2.57c-1.43-1.78-2.19-4.75-2.19-8.49s.76-6.67,2.19-8.5c1.25-1.64,3.32-2.53,5.6-2.53s4.35,.89,5.63,2.53c1.44,1.83,2.17,4.75,2.17,8.5s-.73,6.71-2.17,8.49Z"/><path class="b" d="M42.57,79.29c-.34-.31-.75-1.01-.75-2.06v-10.67l9.96-16.69h-6.82c.49,.49,.54,1.28-.06,2.22l-5.39,9.34c-4.54-8.21-4.53-8.44-5.35-9.94-.64-1.13-1.19-1.62-2.4-1.62h-5.37c.42,.39,.86,.99,1.78,2.52l7.94,14.09v10.75c0,1.05-.41,1.75-.74,2.06h7.19Z"/><path class="b" d="M93.55,79.29c.34-.31,.74-1.01,.74-2.06v-25.31c0-1.05-.41-1.75-.74-2.06h9.74c4.68,0,8.75,2.26,8.75,6.63,0,1.85-.85,4.48-3.01,5.64,2.62,1,5.4,3.42,5.4,7.53,0,3.04-1.51,5.71-3.54,7.24-1.88,1.42-4.05,2.38-7.6,2.38h-9.74Zm6.45-18.31c1.06,.12,3.23-.01,4.16-.5,.93-.48,2-1.2,2-3.05s-1.54-3.32-3.8-3.32c-.84,0-1.54,.04-2.36,.3v6.57Zm6.38,13.36c1.69-1.08,2.08-2.66,2.08-4.32,0-3.22-2.84-4.71-5.57-4.71-.59,0-2,.02-2.89,.17v9.43c1.88,.52,4.88,.39,6.38-.57Z"/><path class="b" d="M.75,77.23c0,1.05-.41,1.75-.75,2.06H7.19c-.34-.31-.74-1.01-.74-2.06v-11.49l8.36,11.93c.77,1.13,1.37,1.62,2.58,1.62h5.77c-.47-.4-.98-.99-2.08-2.52l-9.43-13.36,9.64-13.54h-7.09c.37,.48,.41,1.08-.28,2.24l-7.48,10.78v-10.96c0-1.05,.41-1.75,.74-2.06H0c.34,.3,.75,1.01,.75,2.06v25.31Z"/></g><path class="c" d="M159.79,9.58c-2.68-2.72-7.12-2.25-9.74,.53-3.4,3.57-6.05,4.91-9.2,4.77-4.4-.19-6.58-3.59-8.84-7.89-2.35-4.49-5.96-6.99-10.46-6.99-7.08,0-11.32,5.73-11.32,12.13,0,9.84,6.91,15.72,11.7,18.2,3.98,2.07,8.41,2.93,12.34,3.03-.23,2.36-.93,5.46-1.69,7.65h8.1c-.8-2.19-1.51-5.55-1.72-7.91,11.86-1.54,17.5-6.93,20.59-12.06,1.38-2.25,2.12-4.59,2.11-6.69,0-1.84-.6-3.51-1.87-4.78Zm-38.19,6.15c-2.3,.14-4.26-1.59-4.41-3.87-.14-2.28,1.58-4.26,3.88-4.4,2.28-.15,4.24,1.6,4.38,3.88,.15,2.28-1.58,4.25-3.86,4.4Z"/></svg>