<?xml version="1.0" encoding="UTF-8"?><svg id="a" xmlns="http://www.w3.org/2000/svg" viewBox="0 0 169.7 121.71"><defs><style>.b{fill:#61a60e;}.c{fill:#003770;}</style></defs><g><g><polygon class="c" points="40.31 116.89 40.31 106.77 36.67 106.77 36.67 116.89 34.18 116.89 34.18 106.77 30.54 106.77 30.54 116.89 25.61 116.89 25.61 119.75 48.11 119.75 48.11 116.89 40.31 116.89"/><path class="c" d="M42.35,114.12h2.38c.89-4.57,1.52-10.28,1.89-14.11,.2-2.07,.21-3.14-1.65-3.14H28.04v2.85h14.31v14.4Z"/></g><g><polygon class="c" points="64.96 116.89 64.96 112.02 60.9 112.02 60.9 116.89 51.62 116.89 51.62 119.75 74.12 119.75 74.12 116.89 64.96 116.89"/><path class="c" d="M68.7,110.48c1.68,0,2.26-.93,2.26-2.27v-11.59h-4.07v4.7h-8.05v-4.7h-4.06v11.59c0,1.33,.57,2.27,2.25,2.27h11.67Zm-9.86-2.45v-3.86h8.05v3.86h-8.05Z"/></g><g><path class="c" d="M119.46,112.13c-1.49-.97-3.36-1.38-5.39-1.38s-3.9,.42-5.39,1.38c-1.64,1.06-2.39,2.5-2.39,4.1s.75,3.04,2.39,4.1c1.49,.96,3.37,1.38,5.39,1.38s3.9-.42,5.39-1.38c1.64-1.06,2.4-2.5,2.4-4.1s-.75-3.04-2.4-4.1Zm-2.52,6.04c-.75,.62-1.76,.89-2.87,.89s-2.12-.27-2.87-.89c-.68-.56-.87-1.22-.87-1.94s.2-1.39,.87-1.95c.75-.62,1.77-.88,2.87-.88s2.12,.27,2.87,.88c.68,.56,.88,1.22,.88,1.95s-.2,1.39-.88,1.94Z"/><polygon class="c" points="117.86 95.74 117.86 98.83 114.79 98.83 114.79 101.68 117.86 101.68 117.86 103.61 114.79 103.61 114.79 106.46 117.86 106.46 117.86 110.11 121.93 110.11 121.93 95.74 117.86 95.74"/><path class="c" d="M111.23,108.87c1.68,0,2.26-.93,2.26-2.27v-9.73h-11.09v9.73c0,1.33,.57,2.27,2.26,2.27h6.57Zm-1.81-9.15v6.29h-2.96v-6.29h2.96Z"/></g><g><path class="c" d="M85.37,109.52l1.83-1.38c-3.01-3.41-3.88-6.95-3.88-11.52h-3.77c0,4.57-.87,8.1-3.87,11.52l1.83,1.38c1.81-1.57,2.95-3.26,3.93-5.3,.98,2.05,2.12,3.73,3.93,5.3Z"/><path class="c" d="M94.4,112.32c-1.49-.95-3.36-1.36-5.39-1.36s-3.9,.41-5.39,1.36c-1.64,1.04-2.39,2.45-2.39,4.02s.75,2.99,2.39,4.02c1.49,.94,3.37,1.35,5.39,1.35s3.9-.41,5.39-1.35c1.64-1.04,2.39-2.45,2.39-4.02s-.75-2.98-2.39-4.02Zm-2.52,5.89c-.75,.6-1.77,.85-2.87,.85s-2.12-.26-2.87-.85c-.68-.54-.87-1.17-.87-1.87s.2-1.33,.87-1.87c.75-.59,1.77-.85,2.87-.85s2.12,.26,2.87,.85c.68,.53,.88,1.17,.88,1.87s-.2,1.33-.88,1.87Z"/><polygon class="c" points="93.22 95.74 93.22 101.07 91.71 101.07 91.71 95.74 88.07 95.74 88.07 109.89 91.71 109.89 91.71 103.92 93.22 103.92 93.22 109.89 96.86 109.89 96.86 95.74 93.22 95.74"/></g></g><g><g><path class="c" d="M73.77,51.75c-4.14,0-7.77,1.34-10.23,3.86-2.81,2.78-4.36,7.15-4.36,12.3s1.55,9.52,4.36,12.3c2.46,2.52,6.1,3.9,10.23,3.9s7.82-1.37,10.28-3.9c2.76-2.78,4.31-7.15,4.31-12.3s-1.55-9.52-4.31-12.3c-2.46-2.52-6.14-3.86-10.28-3.86Zm5.92,25.09h0c-1.35,1.72-3.48,2.71-5.92,2.71s-4.57-.98-5.88-2.7c-1.51-1.87-2.31-4.99-2.31-8.93s.79-7.01,2.31-8.93c1.31-1.72,3.48-2.66,5.88-2.66s4.57,.94,5.92,2.66c1.51,1.92,2.29,5,2.29,8.93s-.78,7.06-2.29,8.93Z"/><path class="c" d="M153.72,55.61c-2.47-2.52-6.15-3.86-10.28-3.86s-7.77,1.34-10.25,3.86c-2.79,2.78-4.33,7.15-4.33,12.3s1.54,9.52,4.33,12.3c2.48,2.52,6.12,3.9,10.25,3.9s7.81-1.37,10.28-3.9c2.77-2.78,4.31-7.15,4.31-12.3s-1.54-9.52-4.31-12.3Zm-4.36,21.23h0c-1.35,1.72-3.48,2.71-5.92,2.71s-4.57-.99-5.89-2.71c-1.5-1.87-2.3-4.99-2.3-8.93s.8-7.01,2.3-8.93c1.31-1.72,3.49-2.66,5.89-2.66s4.57,.94,5.92,2.66c1.51,1.92,2.29,5,2.29,8.93s-.77,7.06-2.29,8.93Z"/><path class="c" d="M44.75,83.36c-.36-.32-.78-1.06-.78-2.16v-11.22l10.47-17.54h-7.17c.52,.52,.57,1.34-.06,2.33l-5.67,9.82c-4.77-8.63-4.76-8.88-5.62-10.45-.67-1.19-1.25-1.7-2.52-1.7h-5.65c.45,.41,.91,1.04,1.88,2.65l8.35,14.82v11.3c0,1.1-.43,1.84-.78,2.16h7.56Z"/><path class="c" d="M98.35,83.36c.36-.32,.78-1.06,.78-2.16v-26.61c0-1.1-.43-1.84-.78-2.16h10.24c4.92,0,9.21,2.37,9.21,6.97,0,1.95-.89,4.71-3.17,5.93,2.76,1.05,5.68,3.6,5.68,7.91,0,3.2-1.59,6-3.73,7.62-1.98,1.49-4.26,2.5-7.99,2.5h-10.24Zm6.78-19.25c1.12,.13,3.4-.02,4.38-.53,.98-.51,2.1-1.26,2.1-3.21s-1.62-3.49-3.99-3.49c-.89,0-1.63,.05-2.49,.32v6.91Zm6.71,14.04c1.77-1.14,2.18-2.8,2.18-4.54,0-3.39-2.98-4.95-5.85-4.95-.61,0-2.1,.02-3.04,.18v9.91c1.97,.55,5.13,.41,6.71-.6Z"/><path class="c" d="M.78,81.2c0,1.1-.43,1.84-.78,2.16H7.56c-.36-.32-.78-1.06-.78-2.16v-12.08l8.79,12.54c.81,1.19,1.44,1.7,2.71,1.7h6.06c-.49-.41-1.03-1.04-2.18-2.65l-9.91-14.05,10.13-14.24h-7.45c.39,.51,.43,1.14-.29,2.36l-7.86,11.33v-11.53c0-1.1,.43-1.84,.78-2.16H0c.36,.32,.78,1.06,.78,2.16v26.61Z"/></g><path class="b" d="M167.74,10.07c-2.82-2.86-7.49-2.36-10.24,.55-3.58,3.76-6.36,5.16-9.67,5.02-4.63-.2-6.91-3.78-9.29-8.29-2.47-4.72-6.26-7.35-11-7.35-7.44,0-11.91,6.03-11.91,12.75,0,10.34,7.27,16.53,12.31,19.14,4.19,2.18,8.84,3.08,12.98,3.19-.24,2.48-.97,5.74-1.78,8.05h8.52c-.84-2.31-1.58-5.84-1.81-8.32,12.47-1.62,18.4-7.29,21.64-12.68,1.46-2.37,2.23-4.82,2.22-7.03,0-1.93-.63-3.69-1.97-5.02Zm-40.15,6.47c-2.42,.15-4.48-1.67-4.63-4.07-.15-2.4,1.66-4.48,4.08-4.63,2.39-.15,4.46,1.68,4.61,4.08,.15,2.4-1.66,4.47-4.06,4.62Z"/></g></svg>