<?xml version="1.0" encoding="UTF-8"?><svg id="a" xmlns="http://www.w3.org/2000/svg" viewBox="0 0 361.37 318.12"><defs><style>.b{fill:none;stroke:#352c81;stroke-miterlimit:10;stroke-width:10px;}.c{fill:#352c81;}</style></defs><rect class="c" x="32.37" y="167.62" width="20.43" height="9.19" rx="4.6" ry="4.6"/><rect class="c" x="62.97" y="167.62" width="20.43" height="9.19" rx="4.6" ry="4.6"/><rect class="c" x="92.87" y="167.62" width="20.43" height="9.19" rx="4.6" ry="4.6"/><rect class="c" x="135.29" y="47.18" width="19.03" height="9.19" rx="4.6" ry="4.6" transform="translate(196.58 -93.03) rotate(90)"/><rect class="c" x="158.78" y="40.96" width="19.03" height="9.19" rx="4.6" ry="4.6" transform="translate(213.85 -122.74) rotate(90)"/><rect class="c" x="194.33" y="37.02" width="19.03" height="9.19" rx="4.6" ry="4.6" transform="translate(245.47 -162.23) rotate(90)"/><rect class="c" x="212.49" y="43.5" width="19.03" height="9.19" rx="4.6" ry="4.6" transform="translate(270.1 -173.92) rotate(90)"/><rect class="c" x="229.76" y="50.47" width="19.03" height="9.19" rx="4.6" ry="4.6" transform="translate(294.35 -184.21) rotate(90)"/><rect class="c" x="194.33" y="74.99" width="19.03" height="9.19" rx="4.6" ry="4.6" transform="translate(283.43 -124.26) rotate(90)"/><rect class="c" x="212.49" y="81.47" width="19.03" height="9.19" rx="4.6" ry="4.6" transform="translate(308.07 -135.95) rotate(90)"/><rect class="c" x="229.76" y="88.44" width="19.03" height="9.19" rx="4.6" ry="4.6" transform="translate(332.31 -146.24) rotate(90)"/><rect class="c" x="194.33" y="112.96" width="19.03" height="9.19" rx="4.6" ry="4.6" transform="translate(321.4 -86.3) rotate(90)"/><rect class="c" x="212.49" y="119.43" width="19.03" height="9.19" rx="4.6" ry="4.6" transform="translate(346.04 -97.98) rotate(90)"/><rect class="c" x="229.76" y="126.41" width="19.03" height="9.19" rx="4.6" ry="4.6" transform="translate(370.28 -108.27) rotate(90)"/><rect class="c" x="194.33" y="150.93" width="19.03" height="9.19" rx="4.6" ry="4.6" transform="translate(359.37 -48.33) rotate(90)"/><rect class="c" x="212.49" y="157.4" width="19.03" height="9.19" rx="4.6" ry="4.6" transform="translate(384.01 -60.01) rotate(90)"/><rect class="c" x="229.76" y="164.38" width="19.03" height="9.19" rx="4.6" ry="4.6" transform="translate(408.25 -70.3) rotate(90)"/><rect class="c" x="298.12" y="148.81" width="13.87" height="9.19" rx="4.6" ry="4.6" transform="translate(458.46 -151.65) rotate(90)"/><rect class="c" x="315.42" y="159.6" width="13.87" height="9.19" rx="4.6" ry="4.6" transform="translate(486.56 -158.16) rotate(90)"/><rect class="c" x="298.12" y="174.22" width="13.87" height="9.19" rx="4.6" ry="4.6" transform="translate(483.87 -126.24) rotate(90)"/><rect class="c" x="315.42" y="185.01" width="13.87" height="9.19" rx="4.6" ry="4.6" transform="translate(511.96 -132.75) rotate(90)"/><rect class="c" x="298.12" y="200" width="13.87" height="9.19" rx="4.6" ry="4.6" transform="translate(509.65 -100.46) rotate(90)"/><rect class="c" x="315.42" y="210.79" width="13.87" height="9.19" rx="4.6" ry="4.6" transform="translate(537.74 -106.97) rotate(90)"/><rect class="c" x="298.12" y="226.22" width="13.87" height="9.19" rx="4.6" ry="4.6" transform="translate(535.87 -74.24) rotate(90)"/><rect class="c" x="315.42" y="237.02" width="13.87" height="9.19" rx="4.6" ry="4.6" transform="translate(563.97 -80.74) rotate(90)"/><rect class="c" x="298.12" y="251.14" width="13.87" height="9.19" rx="4.6" ry="4.6" transform="translate(560.79 -49.32) rotate(90)"/><rect class="c" x="315.42" y="261.93" width="13.87" height="9.19" rx="4.6" ry="4.6" transform="translate(588.89 -55.83) rotate(90)"/><rect class="c" x="298.12" y="276.92" width="13.87" height="9.19" rx="4.6" ry="4.6" transform="translate(586.57 -23.54) rotate(90)"/><rect class="c" x="315.42" y="287.72" width="13.87" height="9.19" rx="4.6" ry="4.6" transform="translate(614.67 -30.05) rotate(90)"/><rect class="c" x="194.33" y="191.94" width="19.03" height="9.19" rx="4.6" ry="4.6" transform="translate(400.39 -7.31) rotate(90)"/><rect class="c" x="212.49" y="198.42" width="19.03" height="9.19" rx="4.6" ry="4.6" transform="translate(425.02 -18.99) rotate(90)"/><rect class="c" x="229.76" y="205.39" width="19.03" height="9.19" rx="4.6" ry="4.6" transform="translate(449.27 -29.29) rotate(90)"/><rect class="c" x="194.33" y="230.5" width="19.03" height="9.19" rx="4.6" ry="4.6" transform="translate(438.94 31.24) rotate(90)"/><rect class="c" x="212.49" y="236.97" width="19.03" height="9.19" rx="4.6" ry="4.6" transform="translate(463.58 19.56) rotate(90)"/><rect class="c" x="229.76" y="243.95" width="19.03" height="9.19" rx="4.6" ry="4.6" transform="translate(487.82 9.27) rotate(90)"/><rect class="c" x="194.33" y="268.87" width="19.03" height="9.19" rx="4.6" ry="4.6" transform="translate(477.31 69.61) rotate(90)"/><rect class="c" x="212.49" y="275.34" width="19.03" height="9.19" rx="4.6" ry="4.6" transform="translate(501.95 57.93) rotate(90)"/><rect class="c" x="229.76" y="282.32" width="19.03" height="9.19" rx="4.6" ry="4.6" transform="translate(526.19 47.64) rotate(90)"/><rect class="c" x="135.29" y="86.29" width="19.03" height="9.19" rx="4.6" ry="4.6" transform="translate(235.69 -53.92) rotate(90)"/><rect class="c" x="158.78" y="80.07" width="19.03" height="9.19" rx="4.6" ry="4.6" transform="translate(252.96 -83.63) rotate(90)"/><rect class="c" x="135.29" y="125.4" width="19.03" height="9.19" rx="4.6" ry="4.6" transform="translate(274.8 -14.8) rotate(90)"/><rect class="c" x="158.78" y="119.18" width="19.03" height="9.19" rx="4.6" ry="4.6" transform="translate(292.07 -44.52) rotate(90)"/><rect class="c" x="135.29" y="164.37" width="19.03" height="9.19" rx="4.6" ry="4.6" transform="translate(313.77 24.16) rotate(90)"/><rect class="c" x="158.78" y="158.15" width="19.03" height="9.19" rx="4.6" ry="4.6" transform="translate(331.04 -5.55) rotate(90)"/><rect class="c" x="135.29" y="203.15" width="19.03" height="9.19" rx="4.6" ry="4.6" transform="translate(352.54 62.94) rotate(90)"/><rect class="c" x="158.78" y="196.93" width="19.03" height="9.19" rx="4.6" ry="4.6" transform="translate(369.81 33.23) rotate(90)"/><rect class="c" x="135.29" y="242.48" width="19.03" height="9.19" rx="4.6" ry="4.6" transform="translate(391.88 102.27) rotate(90)"/><rect class="c" x="158.78" y="236.26" width="19.03" height="9.19" rx="4.6" ry="4.6" transform="translate(409.15 72.56) rotate(90)"/><rect class="c" x="135.29" y="281.81" width="19.03" height="9.19" rx="4.6" ry="4.6" transform="translate(431.21 141.61) rotate(90)"/><rect class="c" x="158.78" y="275.59" width="19.03" height="9.19" rx="4.6" ry="4.6" transform="translate(448.48 111.89) rotate(90)"/><rect class="c" x="32.37" y="192.01" width="20.43" height="9.19" rx="4.6" ry="4.6"/><rect class="c" x="62.97" y="192.01" width="20.43" height="9.19" rx="4.6" ry="4.6"/><rect class="c" x="92.87" y="192.01" width="20.43" height="9.19" rx="4.6" ry="4.6"/><rect class="c" x="32.37" y="216.39" width="20.43" height="9.19" rx="4.6" ry="4.6"/><rect class="c" x="62.97" y="216.39" width="20.43" height="9.19" rx="4.6" ry="4.6"/><rect class="c" x="92.87" y="216.39" width="20.43" height="9.19" rx="4.6" ry="4.6"/><rect class="c" x="32.37" y="240.77" width="20.43" height="9.19" rx="4.6" ry="4.6"/><rect class="c" x="62.97" y="240.77" width="20.43" height="9.19" rx="4.6" ry="4.6"/><rect class="c" x="92.87" y="240.77" width="20.43" height="9.19" rx="4.6" ry="4.6"/><rect class="c" x="32.37" y="265.15" width="20.43" height="9.19" rx="4.6" ry="4.6"/><rect class="c" x="62.97" y="265.15" width="20.43" height="9.19" rx="4.6" ry="4.6"/><rect class="c" x="92.87" y="265.15" width="20.43" height="9.19" rx="4.6" ry="4.6"/><rect class="c" x="32.37" y="289.53" width="20.43" height="9.19" rx="4.6" ry="4.6"/><rect class="c" x="62.97" y="289.53" width="20.43" height="9.19" rx="4.6" ry="4.6"/><rect class="c" x="92.87" y="289.53" width="20.43" height="9.19" rx="4.6" ry="4.6"/><path class="b" d="M18.76,313.67V155.84c0-1.85,1.5-3.36,3.36-3.36H125.05"/><path class="b" d="M126.95,313.67V32.05c0-1.32,.79-2.52,2.01-3.03L185.48,5.26c.82-.34,1.74-.34,2.56,0l67.77,28.71c1.22,.51,2,1.71,2,3.03V313.67"/><path class="b" d="M341.05,313.67V149.98c0-1.18-.62-2.26-1.64-2.86l-51.68-30.33c-.51-.3-1.09-.46-1.68-.46h-28.24"/><line class="b" x1="187.21" y1="313.67" x2="187.21" y2="4.72"/><line class="b" x1="286.95" y1="313.67" x2="286.95" y2="119.91"/><rect class="c" x="0" y="309.23" width="361.37" height="8.89" rx="4.44" ry="4.44"/></svg>