<?xml version="1.0" encoding="UTF-8"?><svg id="a" xmlns="http://www.w3.org/2000/svg" viewBox="0 0 373.28 681.1"><defs><style>.b{fill:#727070;}</style></defs><polygon class="b" points="164.75 301.4 159.39 297.25 154.74 294.78 149.8 297.22 143.91 310.5 147.29 314.13 146.06 320.12 142.54 323.75 152.68 331.48 157.56 332.67 165.71 326.71 167.07 315.62 167.82 308.52 164.75 301.4"/><polygon class="b" points="122.84 54.88 137.08 55.64 144.28 64.13 160.73 74.58 160.79 74.72 172.53 100.76 168.24 126.42 185.89 142.56 188.26 148.22 188.26 148.33 187.14 192.76 191.6 190.13 199.04 195.52 226.79 188.17 233.25 191.06 232.61 197.35 237.95 201.15 247.9 201.15 256.66 209.4 274.36 209.4 277.16 205.4 288.72 213.25 290.91 217.62 311.98 214.91 316.56 203.51 327.46 212.17 334.31 211.11 337.2 203.08 346.11 198.37 347.38 188.95 333.92 171.43 323.51 144.25 316.4 140.7 317.92 132.57 309.03 113.52 300.14 112.25 295.32 96.76 284.9 88.13 277.03 74.92 266.87 31.49 249.6 0 235.38 13.46 235.38 27.43 228.01 39.37 220.4 38.1 214.55 30.48 207.7 33.02 190.68 21.33 182.55 21.33 164.78 36.32 149.28 33.02 143.44 39.37 129.22 41.65 121.86 41.65 117.18 48.89 122.84 54.88"/><path class="b" d="M65.42,128.55l5.39,8.5,12.89-10.04,9.3-.8,9.78,12,1.56,14.86-15.94,15.68h-11.27l15.01,24.01-8.13-1.02-7.62,10.16,6.6,1.02,4.83-3.05,6.1,4.57-5.84,5.59,8.63,11.43-.09,.44,13.82,8.45h32.66l3.45-3.57,4.62,.36,2-10.02,15.27-4.62,17.68-19.06,1.14-45.04-2.2-5.26-17.9-16.36,4.34-25.9-11.56-25.63-16.37-10.43-6.97-8.22-14.21-.76-5.9-6.24-11.9,3.72-7.11-2.03-3.56,6.1,4.57,4.57h4.57l3.56,7.62-10.92,9.65-6.86,13.97-11.94,8.38-5.84-6.35-5.33-2.03-7.11,5.33-1.19,5.61,8,24.4Zm33.31-7.59c1.1-1.36,4.21-1.65,7.21-1.93,1.74-.16,3.54-.33,4.06-.7,.81-.58,2.11-3.92,3.05-6.36,.7-1.81,1.25-3.24,1.66-3.81,1.01-1.42,4.73-3.91,7.14-4.51,2.45-.61,6.36-.03,7.28,1.5,.37,.61,.51,2.48,.74,5.74,.23,3.27,1.78,4.97,2.51,6.07,.6,.9,2.53,1.78,5.07,1.71,3.26-.09,5.6,1.69,6.25,2.56,.18,.24,.6,.8-.43,4.6-1.34,4.94-5.26,15.1-7.65,16.1-1.8,.75-5.95-.21-9.97-1.14-2.33-.54-4.52-1.04-5.43-.98-.95,.07-2.25,.68-3.64,1.32-1.9,.88-4.04,1.87-6.05,1.87-.14,0-.28,0-.43-.02-3.82-.28-9.88-11.31-10.72-13.53l-.15-.4c-.96-2.51-2.27-5.94-.53-8.09Z"/><polygon class="b" points="50.75 135.11 55.32 155.94 60.14 159.75 73.35 154.41 77.67 158.22 76.95 167.75 88 167.75 103.3 152.7 101.82 138.61 92.56 127.25 84.08 127.98 70.55 138.51 64.49 128.92 57.01 106.1 56.84 106.92 33.22 124.19 35.51 130.79 50.75 135.11"/><path class="b" d="M100.36,129.09c.92,2.42,6.78,12.66,9.85,12.88,1.87,.13,4.05-.87,5.98-1.77,1.47-.68,2.85-1.32,3.98-1.41,1.06-.08,3.22,.42,5.73,1,3.5,.81,7.85,1.82,9.35,1.19,1.1-.46,3.47-5.01,5.5-10.57,1.89-5.17,2.4-8.16,2.16-8.62-.36-.48-3.42-2.2-5.42-2.15-3.38,.09-5.02-.8-5.93-2.16-.82-1.22-2.35-1.87-2.68-6.56-.16-2.28-.34-4.86-.6-5.3-.45-.74-2.41-1.25-4.28-1.25-.67,0-1.33,.07-1.9,.21-2.13,.53-5.68,2.88-6.57,4.12-.33,.46-.92,1.98-1.54,3.59-1.37,3.55-2.42,6.12-3.4,6.81-.7,.5-2.19,.66-4.55,.88-2.54,.24-5.69,.53-6.53,1.57-1.38,1.7-.19,4.82,.69,7.1l.16,.41Z"/><polygon class="b" points="30.94 259.3 37.28 267.68 34.49 275.56 39.32 279.87 48.46 272 54.3 272.51 50.24 289.02 54.3 301.21 61.92 301.21 74.11 308.06 74.62 328.63 71.82 335.49 80.97 352 81.64 355 90.51 358.48 93.58 352.52 104.5 342.63 104.66 342.61 123.04 340.81 131.05 347.68 144.27 347.05 158.89 361.4 165.32 361.4 175.25 350.37 170.58 337.57 165.67 333.44 165.67 327.97 157.77 333.75 152.16 332.33 141.04 323.87 145.14 319.63 146.2 314.44 142.73 310.7 149.03 296.48 154 294.03 146.25 283.14 146.25 270.83 144.94 267.83 147.9 259.59 148.27 245.51 145.01 241.62 142.91 231.36 110.16 231.36 96.4 222.94 95.44 227.56 85.54 228.32 76.65 223.24 77.16 213.33 68.78 204.7 57.86 203.94 57.35 214.35 56.08 224 48.21 224.25 49.22 234.92 42.11 228.57 35.25 228.32 37.03 235.68 29.67 238.22 21.28 248.13 25.6 256.25 30.94 259.3"/><polygon class="b" points="213.03 348.08 219.61 333.67 217.17 325.15 205.81 318.13 204.92 296.99 195.48 280.07 197.57 271.71 212.09 277.22 210.85 260.33 217.75 258.38 220.66 251.72 227.11 260.19 241.44 259.45 245.4 253.29 255.81 246.77 267.63 221.23 276.78 216.33 276.78 207.68 274.88 210.4 256.26 210.4 247.5 202.15 237.63 202.15 231.55 197.83 232.18 191.67 226.7 189.23 198.83 196.61 191.54 191.33 186.94 194.04 168.99 213.39 154.03 217.92 151.97 228.22 146.94 227.82 143.86 231.01 145.94 241.17 149.28 245.16 148.87 259.85 146.01 267.79 147.25 270.73 147.25 282.82 155.08 293.84 159.93 296.41 165.57 300.76 168.84 308.37 168.07 315.73 166.67 327.05 166.67 332.97 171.42 336.97 176.25 350.18 182.07 355.26 191.13 359.36 199.67 358.02 202.26 353.4 213.03 348.08"/><polygon class="b" points="185.86 386.97 201.07 365.1 199.61 359.04 190.99 360.39 190.86 360.33 181.46 356.06 175.87 351.18 165.76 362.4 158.48 362.4 143.88 348.06 130.7 348.7 122.71 341.85 104.93 343.59 94.32 353.2 90.98 359.74 81.91 356.18 84.52 367.75 76.14 384.76 79.44 393.14 66.49 400 57.09 407.87 64.21 414.98 62.43 424.89 52.99 431.86 67.05 455.03 73.9 455.98 89.16 437.85 92.81 426.23 106.25 428.38 110.18 441.82 115.82 442.44 131.51 454.2 165.36 448.88 172.69 452.25 176.96 435.29 174.7 423.2 174.05 410.36 178.18 405.6 176.97 401.83 177.89 394.17 185.86 386.97"/><polygon class="b" points="349.38 403.33 342.25 395.72 333.84 397.24 330.97 393.55 325.93 399.28 326.69 406.52 323 410.71 324.01 424.8 320.9 438.87 333.09 446.51 340.13 447.79 345.76 453.21 344.59 431.75 349.41 443.17 354.49 440.38 356.17 417.12 349.38 403.33"/><polygon class="b" points="345.84 454.67 339.65 448.72 332.64 447.41 320.34 439.71 315.03 443.24 313.14 448.68 313.03 448.76 297.34 461.95 297.34 477.04 282.91 482.68 277.45 481.44 269.68 489.45 270.26 496.04 275.99 498.56 282.36 490.31 291.04 489.62 293.29 504.46 308.27 506.67 311.06 497.52 335.19 484.83 334.17 469.33 346.11 459.68 345.84 454.67"/><polygon class="b" points="280.16 347.55 272.76 352.22 268.97 349.53 265.43 349.11 257.94 362.23 257.94 371.22 265.77 378.95 259.74 390.33 259.03 399.7 276.06 401.97 276.43 396.58 281.56 397.2 286.91 394.98 287.61 391.3 286.84 380.51 294.31 370.93 295.81 362.85 293.11 358.15 287.32 356.67 287.32 347.55 280.16 347.55"/><path class="b" d="M167.82,548.57l.51-7.37,4.06-2.29,13.42,1.92-.58-56.68-5.02-14.17-9.65-10.29,1.86-6.46-7.22-3.31-33.96,5.34-.17-.13-15.64-11.73-6.04-.66-3.94-13.48-11.96-1.91-3.52,11.06-15.67,18.62-7.87-1.09-14.25-23.5-1.44,1.07-.76,26.16-6.6,4.83-8.63-5.08-7.37,3.56-.25,13.97,5.33,5.84-1.27,8.63-8.38-11.68-5.08,6.86,4.32,16.25-3.3,4.83-5.84,20.83,7.87-9.14,8.13,1.02,9.4-5.08,7.62-.76-5.33,13.71-7.62-3.3-6.6,7.62,7.11,5.33-2.54,6.1h-6.35l-5.59-7.37-4.32,7.37,3.05,7.62,4.06,12.95-16,16.76,4.32,2.79v14.98l5.59-4.32,6.35,.51,15.49-9.4-1.02-11.17,3.56-4.32,7.11,1.27,3.05,14.22-3.3,6.1,5.59,6.6,6.35,3.81,2.29-8.89,12.95-9.4,10.16-3.05,10.41,7.62,11.17-8.89,15.49,8.89,8.13-2.03,3.3-7.37,.25-8.13h5.59l16.51-12.19,8.63,9.4,13.71-2.29-4.83-12.7-4.83-4.83Zm-47.51-58.57c-.43,2.14-2.61,5.67-5.43,6.48-.94,.27-2.37,.36-3.85,.36-2.81,0-5.8-.32-5.99-.34-.23-.04-4.89-.86-7.03-1.96-2.15-1.11-6.33-5.57-7.71-7.04-.22-.24-.41-.42-.6-.62-1.26-1.28-2.83-2.87-3.63-6.13-.87-3.55-.87-12.38,0-15.74,.84-3.25,5.92-8.28,8.48-8.99,1.78-.5,2.74,.93,3.38,1.87,.25,.37,.59,.87,.78,.91,.45,.03,2.29-1.12,3.52-1.87,1.96-1.21,3.2-1.95,3.89-1.95,1.65,0,9.6,9.04,10.35,10.42,.93,1.73,3.49,11.58,3.86,13.87,.39,2.43,.39,8.74,0,10.72Z"/><polygon class="b" points="290.19 490.69 282.88 491.27 276.3 499.79 269.32 496.72 268.64 489.09 277.12 480.34 282.83 481.64 296.34 476.36 296.34 461.48 312.29 448.09 314.2 442.6 319.89 438.81 323 424.73 322.01 410.84 315.27 407.06 311.07 409.74 307.95 416.25 291.19 416.25 276.31 403.02 258.48 400.63 248.67 401.53 240.85 394.38 240.85 390.13 232.44 378.13 223.41 377.37 219.52 371.46 216.42 376.34 203.76 372.47 201.47 366.28 186.57 387.67 178.84 394.66 177.98 401.73 179.31 405.83 175.06 410.72 175.69 423.09 177.99 435.32 173.52 453.07 171.69 459.42 181.12 469.55 186.23 484.06 186.82 540.98 188.4 541.21 197.28 539.17 199.99 527.49 213.28 527.75 216.84 535.87 222.68 534.35 227.25 518.1 237.16 517.84 241.98 512 249.35 513.78 257.98 529.78 264.84 529.52 272.71 539.17 280.33 539.17 283.63 520.13 290.49 517.33 292.5 505.93 290.19 490.69"/><path class="b" d="M115.57,465.89c-.9-1.67-8.36-9.65-9.5-9.9-.41,0-2.1,1.04-3.33,1.8-2.41,1.48-3.54,2.13-4.21,2-.61-.11-1.01-.7-1.44-1.33-.61-.91-1.1-1.53-1.84-1.53-.14,0-.28,.02-.44,.06-2.06,.57-6.99,5.24-7.78,8.28-.85,3.25-.84,11.8,0,15.25,.73,2.99,2.14,4.41,3.38,5.67,.2,.2,.39,.39,.57,.58,3.66,3.9,6.16,6.2,7.48,6.88,2,1.03,6.67,1.85,6.71,1.86,.04,0,6.88,.74,9.43,.01,2.53-.72,4.39-4.05,4.73-5.71,.37-1.86,.37-8.06,0-10.36-.4-2.47-2.93-12.03-3.76-13.56Z"/><polygon class="b" points="367.95 339.56 357.54 355.81 350.68 358.1 352.21 345.65 349.92 333.71 355 324.83 357.03 310.35 365.16 292.32 362.87 286.98 366.17 284.7 366.17 271.24 356.78 247.11 352.46 214.1 345.6 202.16 345.95 199.59 338.01 203.78 335.05 212 327.18 213.23 316.99 205.13 312.69 215.82 290.33 218.7 287.94 213.93 277.78 207.04 277.78 216.93 268.4 221.95 256.6 247.46 246.03 254.08 242.01 260.42 226.63 261.21 220.89 253.68 218.47 259.21 211.91 261.07 213.21 278.71 198.27 273.05 196.55 279.93 205.91 296.71 205.91 296.83 206.79 317.56 218.03 324.5 220.67 333.75 213.79 348.81 202.98 354.16 200.52 358.55 202.09 365.09 204.53 371.66 215.99 375.16 219.5 369.62 223.98 376.41 232.99 377.17 241.85 389.81 241.85 393.94 249.02 400.5 258.03 399.67 258.81 389.96 264.54 379.14 256.94 371.64 256.94 361.96 264.89 348.04 269.34 348.57 272.79 351.02 279.87 346.55 288.32 346.55 288.32 355.9 293.77 357.28 296.86 362.67 295.25 371.35 287.86 380.82 288.61 391.36 287.79 395.69 281.71 398.23 277.35 397.7 277.04 402.33 291.57 415.25 307.32 415.25 310.29 409.05 315.24 405.89 322.38 409.91 325.65 406.18 324.89 398.94 331.02 391.98 334.26 396.15 342.61 394.63 350.24 402.83 356.31 415.15 356.52 412.19 361.86 406.6 361.86 395.94 371.51 362.16 373.28 345.65 367.95 339.56"/><polygon class="b" points="7.24 681.1 21.71 678.05 49.27 678.05 56.38 667.9 74.79 668.78 81.9 648.47 69.97 637.29 42.29 637.29 13.33 648.59 0 666.12 7.24 681.1"/></svg>