<svg xmlns="http://www.w3.org/2000/svg" width="1em" height="1em" fill="none" viewBox="0 0 18 18">
  <path fill="currentColor" fill-rule="evenodd"
    d="M.75 9c0 3.547 1.286 6.179 2.005 7.374.413.687 1.194.97 1.916.85l1.895-.316a2.008 2.008 0 0 0 1.651-2.339l-.31-1.695a1.342 1.342 0 0 0-1.541-1.08l-.951.158c-.238-.404-.636-1.322-.636-2.952s.398-2.548.636-2.952l.95.158c.725.12 1.412-.36 1.543-1.08l.31-1.695a2.008 2.008 0 0 0-1.652-2.34L4.671.778c-.722-.12-1.503.162-1.916.849C2.036 2.82.75 5.453.75 9Zm3.157 6.686C3.265 14.618 2.093 12.226 2.093 9s1.172-5.619 1.814-6.686c.094-.156.294-.259.544-.217l1.895.315a.67.67 0 0 1 .55.78l-.31 1.694-1.02-.17c-.417-.069-.93.062-1.223.515-.367.566-.907 1.749-.907 3.769s.54 3.203.907 3.769c.293.453.806.583 1.223.514l1.02-.17.31 1.696a.67.67 0 0 1-.55.78l-1.895.314c-.25.042-.45-.06-.544-.217Z"
    clip-rule="evenodd" />
  <path fill="currentColor"
    d="M15.897 2.25a.753.753 0 0 0-.737.88c.22 1.29.59 3.764.59 5.87 0 2.105-.37 4.58-.59 5.87a.753.753 0 0 0 .737.88c.35 0 .652-.246.713-.591.208-1.174.64-3.883.64-6.159 0-2.277-.432-4.985-.64-6.159a.719.719 0 0 0-.713-.591ZM12.297 4.763c-.117-.493.254-1.013.76-1.013.272 0 .516.154.6.412.22.67.593 2.196.593 4.838 0 2.643-.372 4.168-.592 4.838a.615.615 0 0 1-.6.412c-.507 0-.878-.52-.76-1.013.209-.88.452-2.315.452-4.237 0-1.922-.243-3.357-.453-4.237ZM10.194 5.25c-.548 0-.939.594-.793 1.123.178.65.349 1.553.349 2.627 0 1.074-.17 1.976-.35 2.627-.145.53.246 1.123.794 1.123.196 0 .382-.081.474-.254.221-.416.582-1.415.582-3.496s-.361-3.08-.582-3.496c-.092-.173-.278-.254-.474-.254Z" />
</svg>