<svg xmlns="http://www.w3.org/2000/svg" width="1em" height="1em" fill="none" viewBox="0 0 14 15">
  <path fill="#fff" d="M13.334 2.5H7v9.666h6.334V2.5Z" />
  <path fill="#217346"
    d="M13.334 2.5v9.667H7V2.5h6.334Zm0-.667H7a.666.666 0 0 0-.666.667v9.667c0 .368.298.666.666.666h6.334a.666.666 0 0 0 .666-.666V2.5a.666.666 0 0 0-.666-.667Z" />
  <path fill="#217346"
    d="M12.333 3.5H10v1h2.333v-1ZM12.333 5.167H10v1h2.333v-1ZM12.333 6.833H10v1h2.333v-1ZM12.333 8.5H10v1h2.333v-1ZM12.333 10.166H10v1h2.333v-1ZM9.334 3.5H7v1h2.334v-1ZM9.334 5.167H7v1h2.334v-1ZM9.334 6.833H7v1h2.334v-1ZM9.334 8.5H7v1h2.334v-1ZM9.334 10.166H7v1h2.334v-1Z" />
  <path fill="#217346" fill-rule="evenodd" d="M8.333.5 0 1.96v11.08l8.333 1.46V.5Z" clip-rule="evenodd" />
  <path fill="#fff"
    d="m5.953 4.5-1.163.07-.71 1.667-.046.15L4 6.5l-.03.11-.024.09a.276.276 0 0 0-.03-.127l-.03-.116-.034-.11-.036-.1-.61-1.583-1.123.07L3.28 7.327 1.957 9.92l1.096.067.736-1.7.034-.117.027-.103.024-.087v-.07l.023.123.024.104.02.08.02.056.767 1.813 1.273.08L4.568 7.31 5.953 4.5Z" />
</svg>