<?xml version="1.0" encoding="UTF-8"?><svg id="a" xmlns="http://www.w3.org/2000/svg" viewBox="0 0 334.84 116.72"><defs><style>.b{fill:#fff;}.c{fill:#61a60e;}</style></defs><g><g><g><polygon class="b" points="216.9 75.41 216.9 65.79 213.44 65.79 213.44 75.41 211.07 75.41 211.07 65.79 207.6 65.79 207.6 75.41 202.92 75.41 202.92 78.13 224.32 78.13 224.32 75.41 216.9 75.41"/><path class="b" d="M218.85,72.78h2.26c.85-4.35,1.44-9.78,1.8-13.42,.19-1.97,.2-2.99-1.57-2.99h-16.11v2.71h13.61v13.69Z"/></g><g><polygon class="b" points="240.35 75.41 240.35 70.78 236.49 70.78 236.49 75.41 227.65 75.41 227.65 78.13 249.06 78.13 249.06 75.41 240.35 75.41"/><path class="b" d="M243.9,69.32c1.6,0,2.15-.89,2.15-2.15v-11.03h-3.87v4.47h-7.66v-4.47h-3.86v11.03c0,1.27,.55,2.15,2.14,2.15h11.1Zm-9.38-2.33v-3.67h7.66v3.67h-7.66Z"/></g><g><path class="b" d="M292.19,70.88c-1.42-.92-3.2-1.32-5.13-1.32s-3.7,.39-5.12,1.32c-1.56,1.01-2.28,2.38-2.28,3.9s.72,2.9,2.28,3.9c1.42,.92,3.2,1.31,5.12,1.31s3.71-.4,5.13-1.31c1.56-1.01,2.28-2.38,2.28-3.9s-.72-2.89-2.28-3.9Zm-2.4,5.75c-.71,.59-1.68,.85-2.73,.85s-2.01-.26-2.73-.85c-.64-.53-.83-1.16-.83-1.85s.19-1.32,.83-1.85c.72-.59,1.68-.84,2.73-.84s2.02,.25,2.73,.84c.65,.53,.83,1.16,.83,1.85s-.19,1.32-.83,1.85Z"/><polygon class="b" points="290.66 55.3 290.66 58.23 287.75 58.23 287.75 60.94 290.66 60.94 290.66 62.78 287.75 62.78 287.75 65.5 290.66 65.5 290.66 68.96 294.53 68.96 294.53 55.3 290.66 55.3"/><path class="b" d="M284.36,67.79c1.6,0,2.15-.89,2.15-2.16v-9.26h-10.55v9.26c0,1.27,.55,2.16,2.15,2.16h6.25Zm-1.72-8.7v5.99h-2.82v-5.99h2.82Z"/></g><g><path class="b" d="M259.76,68.4l1.74-1.31c-2.86-3.25-3.68-6.61-3.68-10.95h-3.59c0,4.34-.82,7.71-3.69,10.95l1.74,1.31c1.72-1.5,2.81-3.1,3.73-5.05,.93,1.95,2.01,3.55,3.74,5.05Z"/><path class="b" d="M268.35,71.07c-1.42-.9-3.2-1.29-5.13-1.29s-3.71,.39-5.13,1.29c-1.56,.99-2.27,2.33-2.27,3.82s.71,2.84,2.27,3.83c1.42,.9,3.2,1.29,5.13,1.29s3.71-.39,5.13-1.29c1.56-.99,2.27-2.33,2.27-3.83s-.71-2.83-2.27-3.82Zm-2.4,5.6c-.71,.57-1.68,.81-2.73,.81s-2.02-.25-2.73-.81c-.65-.51-.83-1.11-.83-1.78s.18-1.27,.83-1.78c.71-.56,1.68-.81,2.73-.81s2.02,.25,2.73,.81c.64,.51,.84,1.11,.84,1.78s-.19,1.27-.84,1.78Z"/><polygon class="b" points="267.22 55.3 267.22 60.36 265.79 60.36 265.79 55.3 262.33 55.3 262.33 68.76 265.79 68.76 265.79 63.07 267.22 63.07 267.22 68.76 270.69 68.76 270.69 55.3 267.22 55.3"/></g></g><g><path class="b" d="M110.47,49.22c-3.93,0-7.39,1.28-9.73,3.67-2.68,2.64-4.15,6.8-4.15,11.7s1.47,9.05,4.15,11.7c2.34,2.4,5.8,3.71,9.73,3.71s7.44-1.31,9.78-3.71c2.63-2.64,4.1-6.8,4.1-11.7s-1.47-9.06-4.1-11.7c-2.34-2.39-5.84-3.67-9.78-3.67Zm5.63,23.86h0c-1.29,1.64-3.31,2.57-5.63,2.57s-4.35-.94-5.59-2.57c-1.44-1.78-2.2-4.75-2.2-8.49s.76-6.67,2.2-8.5c1.24-1.64,3.31-2.53,5.59-2.53s4.35,.89,5.63,2.53c1.44,1.83,2.18,4.75,2.18,8.5s-.74,6.71-2.18,8.49Z"/><path class="b" d="M186.51,52.89c-2.35-2.39-5.85-3.67-9.78-3.67s-7.39,1.28-9.75,3.67c-2.66,2.64-4.12,6.8-4.12,11.7s1.46,9.05,4.12,11.7c2.36,2.4,5.82,3.71,9.75,3.71s7.43-1.31,9.78-3.71c2.64-2.64,4.1-6.8,4.1-11.7s-1.46-9.06-4.1-11.7Zm-4.14,20.19h0c-1.29,1.64-3.31,2.57-5.63,2.57s-4.35-.94-5.6-2.57c-1.43-1.78-2.19-4.75-2.19-8.49s.76-6.67,2.19-8.5c1.25-1.64,3.32-2.53,5.6-2.53s4.35,.89,5.63,2.53c1.44,1.83,2.17,4.75,2.17,8.5s-.73,6.71-2.17,8.49Z"/><path class="b" d="M82.88,79.29c-.34-.31-.75-1.01-.75-2.06v-10.67l9.96-16.69h-6.82c.49,.49,.54,1.28-.06,2.22l-5.39,9.34c-4.54-8.21-4.53-8.44-5.35-9.94-.64-1.13-1.19-1.62-2.4-1.62h-5.37c.42,.39,.86,.99,1.78,2.52l7.94,14.09v10.75c0,1.05-.41,1.75-.74,2.06h7.19Z"/><path class="b" d="M133.85,79.29c.34-.31,.74-1.01,.74-2.06v-25.31c0-1.05-.41-1.75-.74-2.06h9.74c4.68,0,8.75,2.26,8.75,6.63,0,1.85-.85,4.48-3.01,5.64,2.62,1,5.4,3.42,5.4,7.53,0,3.04-1.51,5.71-3.54,7.24-1.88,1.42-4.05,2.38-7.6,2.38h-9.74Zm6.45-18.31c1.06,.12,3.23-.01,4.16-.5,.93-.48,2-1.2,2-3.05s-1.54-3.32-3.8-3.32c-.84,0-1.54,.04-2.36,.3v6.57Zm6.38,13.36c1.69-1.08,2.08-2.66,2.08-4.32,0-3.22-2.84-4.71-5.57-4.71-.59,0-2,.02-2.89,.17v9.43c1.88,.52,4.88,.39,6.38-.57Z"/><path class="b" d="M41.05,77.23c0,1.05-.41,1.75-.75,2.06h7.19c-.34-.31-.74-1.01-.74-2.06v-11.49l8.36,11.93c.77,1.13,1.37,1.62,2.58,1.62h5.77c-.47-.4-.98-.99-2.08-2.52l-9.43-13.36,9.64-13.54h-7.09c.37,.48,.41,1.08-.28,2.24l-7.48,10.78v-10.96c0-1.05,.41-1.75,.74-2.06h-7.19c.34,.3,.75,1.01,.75,2.06v25.31Z"/></g><path class="c" d="M200.09,9.58c-2.68-2.72-7.12-2.25-9.74,.53-3.4,3.57-6.05,4.91-9.2,4.77-4.4-.19-6.58-3.59-8.84-7.89-2.35-4.49-5.96-6.99-10.46-6.99-7.08,0-11.32,5.73-11.32,12.13,0,9.84,6.91,15.72,11.7,18.2,3.98,2.07,8.41,2.93,12.34,3.03-.23,2.36-.93,5.46-1.69,7.65h8.1c-.8-2.19-1.51-5.55-1.72-7.91,11.86-1.54,17.5-6.93,20.59-12.06,1.38-2.25,2.12-4.59,2.11-6.69,0-1.84-.6-3.51-1.87-4.78Zm-38.19,6.15c-2.3,.14-4.26-1.59-4.41-3.87-.14-2.28,1.58-4.26,3.88-4.4,2.28-.15,4.24,1.6,4.38,3.88,.15,2.28-1.58,4.25-3.86,4.4Z"/></g><path class="b" d="M32.16,96.38v3.38h2.84v2.23h-2.84v5.21c0,1.45,.38,2.18,1.53,2.18,.51,0,.89-.06,1.16-.13l.06,2.27c-.45,.17-1.23,.31-2.17,.31-1.1,0-2.01-.37-2.57-.97-.64-.68-.93-1.77-.93-3.31v-5.56h-1.69v-2.23h1.69v-2.68l2.93-.71Z"/><path class="b" d="M18.27,106.5c.08,2.14,1.74,3.08,3.65,3.08,1.37,0,2.36-.22,3.26-.55l.44,2.06c-1.01,.43-2.41,.75-4.13,.75-3.84,0-6.08-2.37-6.08-5.99,0-3.26,1.98-6.35,5.78-6.35s5.09,3.16,5.09,5.75c0,.56-.05,1-.11,1.25h-7.9Zm5.19-2.08c.01-1.09-.46-2.88-2.46-2.88-1.84,0-2.6,1.67-2.74,2.88h5.2Z"/><path class="b" d="M69.11,103.38c0-1.58-.03-2.75-.1-3.8h2.59l.11,2.25h.08c.58-1.66,1.96-2.51,3.23-2.51,.29,0,.46,.01,.7,.07v2.81c-.26-.05-.52-.08-.88-.08-1.42,0-2.41,.91-2.68,2.26-.05,.26-.08,.58-.08,.9v6.13h-2.99v-8.01Z"/><path class="b" d="M111.24,104.7c-.1-2.11-.21-4.65-.2-6.88h-.07c-.54,2.01-1.22,4.21-1.93,6.28l-2.4,7.08h-1.21c-.65,0-1.22-.42-1.42-1.04l-1.84-5.94c-.64-2.1-1.23-4.32-1.65-6.38h-.05c-.07,2.14-.17,4.75-.29,6.98l-.36,6.57h-3.52c.53-.8,.85-1.73,.91-2.69l.91-13.66h3.93l2.13,6.57c.59,1.93,1.11,3.87,1.5,5.7h.07c.44-1.79,1-3.78,1.63-5.71l2.27-6.56h3.88l.77,13.43c.06,1.03,.37,2.04,.89,2.93h-3.64l-.32-6.67Z"/><path class="b" d="M125.35,111.37l-.2-1.32h-.07c-.72,.93-1.95,1.58-3.48,1.58-2.4,0-3.72-1.71-3.72-3.51,0-2.98,2.66-4.49,7.01-4.47v-.2c0-.78-.31-2.07-2.4-2.06-1.16,0-2.37,.37-3.18,.88l-.59-1.94c.89-.54,2.42-1.05,4.28-1.05,3.79,0,4.87,2.39,4.87,4.98v4.25c0,1.07,.48,2.12,.61,2.85h-3.12Zm-.4-5.79c-2.11-.03-4.12,.42-4.12,2.22,0,1.16,.76,1.7,1.7,1.7,1.19,0,2.05-.77,2.34-1.63,.06-.21,.08-.44,.08-.65v-1.63Z"/><path class="b" d="M132.25,103.07c0-1.36-.04-2.49-.1-3.51h2.61l.15,1.77h.07c.52-.92,1.8-2.04,3.77-2.04,2.06,0,4.2,1.33,4.2,5.06v4.92c0,.74,.21,1.47,.6,2.1h-2.13c-.81,0-1.46-.65-1.46-1.46v-5.2c0-1.7-.62-2.99-2.25-2.99-1.19,0-2.01,.84-2.32,1.75-.09,.24-.14,.61-.14,.95v6.95h-2.99v-8.3Z"/><path class="b" d="M153.99,111.37l-.2-1.32h-.07c-.72,.93-1.95,1.58-3.48,1.58-2.4,0-3.72-1.71-3.72-3.51,0-2.98,2.66-4.49,7.01-4.47v-.2c0-.78-.31-2.07-2.4-2.06-1.16,0-2.37,.37-3.18,.88l-.59-1.94c.89-.54,2.42-1.05,4.28-1.05,3.79,0,4.87,2.39,4.87,4.98v4.25c0,1.07,.46,2.12,.59,2.85h-3.1Zm-.4-5.79c-2.11-.03-4.12,.42-4.12,2.22,0,1.16,.76,1.7,1.7,1.7,1.19,0,2.05-.77,2.34-1.63,.06-.21,.08-.44,.08-.65v-1.63Z"/><path class="b" d="M171.68,99.56c-.06,.8-.1,1.78-.1,3.39v6.7c0,2.48-.5,4.24-1.75,5.35-1.23,1.1-2.94,1.44-4.57,1.44-1.5,0-3.1-.33-4.11-.94l.64-2.28c.76,.46,2.02,.91,3.45,.91,1.94,0,3.4-1.03,3.4-3.57v-1.01h-.05c-.67,1.03-1.87,1.73-3.44,1.73-2.93,0-5.01-2.43-5.01-5.76,0-3.9,2.52-6.24,5.34-6.24,1.81,0,2.87,.86,3.44,1.84h.05l.11-1.57h2.61Zm-3.09,4.74c0-.29-.03-.57-.09-.81-.32-1.1-1.17-1.92-2.44-1.92-1.65,0-2.9,1.45-2.9,3.86,0,2.01,1.01,3.64,2.89,3.64,1.12,0,2.07-.72,2.41-1.81,.1-.31,.13-.71,.13-1.05v-1.91Z"/><path class="b" d="M178.1,106.29c.08,2.14,1.74,3.08,3.65,3.08,1.37,0,2.36-.22,3.26-.55l.44,2.06c-1.01,.43-2.41,.75-4.13,.75-3.84,0-6.08-2.37-6.08-5.99,0-3.26,1.98-6.35,5.78-6.35s5.09,3.16,5.09,5.75c0,.56-.05,1-.11,1.25h-7.9Zm5.19-2.08c.01-1.09-.46-2.88-2.46-2.88-1.84,0-2.6,1.67-2.74,2.88h5.2Z"/><path class="b" d="M189.74,103.07c0-1.36-.04-2.49-.1-3.51h2.55l.14,1.73h.07c.57-.92,1.64-2,3.64-2,1.56,0,2.77,.87,3.28,2.18h.05c.41-.65,.91-1.14,1.44-1.48,.67-.45,1.42-.69,2.4-.69,1.95,0,3.94,1.34,3.94,5.13v6.95h-2.91v-6.53c0-1.97-.68-3.12-2.11-3.12-1.02,0-1.77,.72-2.08,1.57-.09,.29-.15,.66-.15,1v7.09h-1.45c-.81,0-1.46-.65-1.46-1.46v-5.37c0-1.66-.66-2.83-2.04-2.83-1.12,0-1.87,.88-2.15,1.69-.11,.3-.15,.65-.15,.99v6.98h-2.91v-8.3Z"/><path class="b" d="M213.63,106.29c.08,2.14,1.74,3.08,3.65,3.08,1.37,0,2.36-.22,3.26-.55l.44,2.06c-1.01,.43-2.41,.75-4.13,.75-3.84,0-6.08-2.37-6.08-5.99,0-3.26,1.98-6.35,5.78-6.35s5.09,3.16,5.09,5.75c0,.56-.05,1-.11,1.25h-7.9Zm5.19-2.08c.01-1.09-.46-2.88-2.46-2.88-1.84,0-2.6,1.67-2.74,2.88h5.2Z"/><path class="b" d="M225.26,103.07c0-1.36-.04-2.49-.1-3.51h2.61l.15,1.77h.07c.52-.92,1.8-2.04,3.77-2.04,2.06,0,4.2,1.33,4.2,5.06v5.56c0,.54,.2,1.06,.56,1.46h-2.09c-.81,0-1.46-.65-1.46-1.46v-5.2c0-1.7-.62-2.99-2.25-2.99-1.19,0-2.01,.84-2.32,1.75-.09,.24-.14,.61-.14,.95v6.95h-2.99v-8.3Z"/><path class="b" d="M243.65,96.17v3.38h2.84v2.23h-2.84v5.21c0,1.45,.38,2.18,1.53,2.18,.51,0,.89-.06,1.16-.13l.06,2.27c-.45,.17-1.23,.31-2.17,.31-1.1,0-2.01-.37-2.57-.97-.64-.68-.93-1.77-.93-3.31v-5.56h-1.69v-2.23h1.69v-2.68l2.93-.71Z"/><path class="b" d="M256.25,108.11c.96,.55,2.43,1.04,3.95,1.04,1.91,0,2.97-.9,2.97-2.23,0-1.24-.83-1.96-2.9-2.71-2.7-.96-4.43-2.41-4.43-4.75,0-2.68,2.24-4.7,5.79-4.7,1.77,0,3.07,.38,3.92,.81l-.71,2.41c-.59-.31-1.73-.78-3.27-.78-1.9,0-2.7,1.01-2.7,1.97,0,1.25,.95,1.84,3.13,2.68,2.84,1.08,4.21,2.51,4.21,4.86,0,2.63-1.98,4.91-6.2,4.91-1.73,0-3.53-.49-4.42-1.04l.66-2.47Z"/><path class="b" d="M270.51,99.56c.64,0,1.21,.41,1.41,1.01l1.79,5.32c.23,.73,.49,1.63,.66,2.29h.07c.18-.66,.4-1.55,.63-2.31l1.85-6.31h3.19l-2.96,8.06c-1.62,4.41-2.72,6.37-4.11,7.59-1.17,1.02-2.39,1.41-3.13,1.51l-.67-2.51c.5-.12,1.13-.39,1.73-.81,.57-.37,1.23-1.07,1.64-1.88,.12-.2,.19-.38,.19-.52,0-.13-.03-.3-.16-.58l-4.34-10.85h2.22Z"/><path class="b" d="M282.63,108.62c.66,.41,1.94,.86,3.01,.86,1.31,0,1.9-.55,1.9-1.33s-.49-1.21-1.94-1.72c-2.31-.79-3.28-2.05-3.27-3.45,0-2.08,1.73-3.7,4.48-3.7,1.3,0,2.44,.33,3.13,.71l-.59,2.1c-.5-.28-1.45-.68-2.5-.68s-1.65,.52-1.65,1.25,.57,1.11,2.06,1.65c2.15,.76,3.14,1.86,3.15,3.6,0,2.15-1.68,3.71-4.8,3.71-1.43,0-2.73-.34-3.6-.83l.6-2.17Z"/><path class="b" d="M297.52,96.17v3.38h2.84v2.23h-2.84v5.21c0,1.45,.38,2.18,1.53,2.18,.51,0,.89-.06,1.16-.13l.06,2.27c-.45,.17-1.23,.31-2.17,.31-1.1,0-2.01-.37-2.57-.97-.64-.68-.93-1.77-.93-3.31v-5.56h-1.69v-2.23h1.69v-2.68l2.93-.71Z"/><path class="b" d="M305.79,106.29c.08,2.14,1.74,3.08,3.65,3.08,1.37,0,2.36-.22,3.26-.55l.44,2.06c-1.01,.43-2.41,.75-4.13,.75-3.84,0-6.08-2.37-6.08-5.99,0-3.26,1.98-6.35,5.78-6.35s5.09,3.16,5.09,5.75c0,.56-.05,1-.11,1.25h-7.9Zm5.19-2.08c.01-1.09-.46-2.88-2.46-2.88-1.84,0-2.6,1.67-2.74,2.88h5.2Z"/><path class="b" d="M317.42,103.07c0-1.36-.04-2.49-.1-3.51h2.55l.14,1.73h.07c.57-.92,1.64-2,3.64-2,1.56,0,2.77,.87,3.28,2.18h.05c.41-.65,.91-1.14,1.44-1.48,.67-.45,1.42-.69,2.4-.69,1.95,0,3.94,1.34,3.94,5.13v6.95h-2.91v-6.53c0-1.97-.68-3.12-2.11-3.12-1.02,0-1.77,.72-2.08,1.57-.09,.29-.15,.66-.15,1v7.09h-1.45c-.81,0-1.46-.65-1.46-1.46v-5.37c0-1.66-.66-2.83-2.04-2.83-1.12,0-1.87,.88-2.15,1.69-.11,.3-.15,.65-.15,.99v6.98h-2.91v-8.3Z"/><path class="b" d="M.57,95.53H3.8l5.41,9.61c.16,.29,.34,.66,.54,1.09s.36,.91,.47,1.42v-12.12h2.64v15.86h-1.72c-.94,0-1.8-.5-2.26-1.32l-4.69-8.32c-.21-.35-.4-.73-.57-1.14-.18-.41-.32-.84-.42-1.3v11.28c0,.44-.36,.8-.8,.8H0c.38-.78,.57-1.64,.57-2.51v-13.35Z"/><path class="b" d="M39.93,111.39l-3.01-12.12h2.97l1.78,9.39h.09l2.2-9.39h2.62l2.09,9.39h.09l1.94-9.39h2.77l-2.68,10.86c-.18,.74-.85,1.26-1.61,1.26h-1.93l-1.98-8.54h-.09l-1.7,7.25c-.18,.75-.85,1.28-1.62,1.28h-1.92Z"/><path class="b" d="M60.5,111.57c-.87,0-1.65-.12-2.34-.37-.7-.25-1.29-.61-1.78-1.08-.49-.47-.87-1.05-1.14-1.75-.27-.7-.41-1.49-.41-2.37v-1.43c0-.89,.14-1.69,.41-2.38s.65-1.27,1.14-1.74c.49-.47,1.08-.83,1.78-1.08,.7-.25,1.48-.37,2.34-.37s1.63,.12,2.33,.37c.7,.25,1.3,.61,1.79,1.08,.49,.47,.87,1.05,1.14,1.74s.41,1.48,.41,2.38v1.43c0,.88-.14,1.67-.41,2.37-.27,.7-.65,1.28-1.14,1.75-.49,.47-1.09,.83-1.79,1.08-.7,.25-1.48,.37-2.33,.37Zm0-2.42c.41,0,.79-.06,1.14-.18s.66-.3,.91-.55c.26-.25,.46-.58,.6-.99,.15-.41,.22-.9,.22-1.47v-1.34c0-1.16-.26-1.98-.78-2.46s-1.22-.73-2.1-.73-1.58,.24-2.1,.73-.78,1.31-.78,2.46v1.34c0,.57,.07,1.06,.22,1.47,.15,.41,.35,.74,.6,.99,.26,.25,.56,.43,.91,.55,.35,.12,.73,.18,1.14,.18Z"/><path class="b" d="M84.65,104.28l4.91,7.11h-2.52c-.64,0-1.23-.33-1.58-.86l-2.75-4.28-1.39,1.54v2.44c0,.64-.52,1.17-1.17,1.17h-2.2c.39-.77,.6-1.62,.6-2.49v-14.14h2.77v9.64l4.53-5.13h3.5l-4.71,5.02Z"/></svg>