<svg xmlns="http://www.w3.org/2000/svg" fill="none" viewBox="0 0 368 603">
  <g class="south-korea" clip-path="url(#clip0_1027_20754)">
    <g class="provinces" fill="#D6D6D6">
      <path class="Daejeon"
        d="m158.96 301.4-5.36-4.15-4.66-2.47-4.94 2.44-5.89 13.28 3.38 3.63-1.22 5.99-3.52 3.63 10.14 7.73 4.88 1.19 8.15-5.96 1.36-11.09.75-7.1-3.07-7.12Z" />
      <path class="Gangwon-do"
        d="m117.05 54.88 14.24.76 7.2 8.49 16.44 10.45.06.14 11.75 26.04-4.3 25.66 17.66 16.14 2.37 5.66v.11l-1.12 44.43 4.46-2.63 7.43 5.39 27.75-7.35 6.46 2.89-.64 6.29 5.35 3.8h9.94l8.77 8.25h17.69l2.81-4 11.56 7.85 2.18 4.37 21.08-2.71 4.58-11.4 10.89 8.66 6.86-1.06 2.88-8.03 8.92-4.71 1.27-9.42-13.46-17.52-10.42-27.18-7.11-3.55 1.53-8.13-8.89-19.05-8.89-1.27-4.83-15.49-10.41-8.63-7.87-13.21-10.16-43.43L243.81 0l-14.22 13.46v13.97l-7.37 11.94-7.62-1.27-5.84-7.62-6.86 2.54-17.01-11.69h-8.13l-17.78 14.99-15.49-3.3-5.84 6.35-14.22 2.28h-7.37l-4.67 7.24 5.66 5.99Z" />
      <path class="Gyeonggi-do"
        d="m59.63 128.55 5.39 8.5 12.89-10.04 9.3-.8 9.78 12 1.56 14.86-15.94 15.68H71.34l15.01 24.01-8.13-1.02-7.62 10.16 6.6 1.02 4.83-3.05 6.1 4.57-5.84 5.59 8.63 11.43-.09.44 13.82 8.45h32.66l3.45-3.57 4.62.36 2-10.02 15.27-4.62 17.68-19.06 1.14-45.04-2.2-5.26-17.9-16.36 4.34-25.9-11.56-25.63-16.37-10.43-6.97-8.22-14.21-.76-5.9-6.24-11.9 3.72-7.11-2.03-3.56 6.1 4.57 4.57h4.57l3.56 7.62-10.92 9.65-6.86 13.97-11.94 8.38-5.84-6.35-5.33-2.03-7.11 5.33-1.19 5.61 8 24.4-.01.01Zm33.31-7.59c1.1-1.36 4.21-1.65 7.21-1.93 1.74-.16 3.54-.33 4.06-.7.81-.58 2.11-3.92 3.05-6.36.7-1.81 1.25-3.24 1.66-3.81 1.01-1.42 4.73-3.91 7.14-4.51 2.45-.61 6.36-.03 7.28 1.5.37.61.51 2.48.74 5.74.23 3.27 1.78 4.97 2.51 6.07.6.9 2.53 1.78 5.07 1.71 3.26-.09 5.6 1.69 6.25 2.56.18.24.6.8-.43 4.6-1.34 4.94-5.26 15.1-7.65 16.1-1.8.75-5.95-.21-9.97-1.14-2.33-.54-4.52-1.04-5.43-.98-.95.07-2.25.68-3.64 1.32-1.9.88-4.04 1.87-6.05 1.87-.14 0-.28 0-.43-.02-3.82-.28-9.88-11.31-10.72-13.53l-.15-.4c-.96-2.51-2.27-5.94-.53-8.09h.03Z" />
      <path class="Incheon"
        d="m44.95 135.11 4.57 20.83 4.83 3.81 13.21-5.34 4.31 3.81-.71 9.53h11.05l15.3-15.05-1.48-14.09-9.27-11.36-8.47.73-13.53 10.53-6.06-9.59-7.48-22.82-.17.82-23.62 17.27 2.28 6.6 15.24 4.32Z" />
      <path class="Seoul"
        d="M94.56 129.09c.92 2.42 6.78 12.66 9.85 12.88 1.87.13 4.05-.87 5.98-1.77 1.47-.68 2.85-1.32 3.98-1.41 1.06-.08 3.22.42 5.73 1 3.5.81 7.85 1.82 9.35 1.19 1.1-.46 3.47-5.01 5.5-10.57 1.89-5.17 2.4-8.16 2.16-8.62-.36-.48-3.42-2.2-5.42-2.15-3.38.09-5.02-.8-5.93-2.16-.82-1.22-2.35-1.87-2.68-6.56-.16-2.28-.34-4.86-.6-5.3-.45-.74-2.41-1.25-4.28-1.25-.67 0-1.33.07-1.9.21-2.13.53-5.68 2.88-6.57 4.12-.33.46-.92 1.98-1.54 3.59-1.37 3.55-2.42 6.12-3.4 6.81-.7.5-2.19.66-4.55.88-2.54.24-5.69.53-6.53 1.57-1.38 1.7-.19 4.82.69 7.1l.16.41v.03Z" />
      <path class="Chungcheongnam-do"
        d="m25.14 259.3 6.35 8.38-2.79 7.88 4.82 4.31 9.15-7.87 5.84.51-4.07 16.51 4.07 12.19h7.62l12.19 6.85.51 20.57-2.8 6.86L75.17 352l.68 3 8.86 3.48 3.08-5.96 10.92-9.89.16-.02 18.37-1.8 8.01 6.87 13.23-.63 14.61 14.35h6.43l9.94-11.03-4.68-12.8-4.9-4.13v-5.47l-7.9 5.78-5.62-1.42-11.11-8.46 4.1-4.24 1.06-5.19-3.48-3.74 6.31-14.22 4.96-2.45-7.75-10.89v-12.31l-1.31-3 2.97-8.24.37-14.08-3.26-3.89-2.1-10.26h-32.75l-13.76-8.42-.96 4.62-9.9.76-8.89-5.08.51-9.91-8.39-8.63-10.92-.76-.5 10.41-1.27 9.65-7.88.25 1.02 10.67-7.11-6.35-6.86-.25 1.78 7.36-7.37 2.54-8.38 9.91 4.32 8.12 5.33 3.05Z" />
      <path class="Chungcheongbuk-do"
        d="m207.24 348.08 6.58-14.41-2.44-8.52-11.36-7.02-.9-21.14-9.43-16.92 2.09-8.36 14.52 5.51-1.24-16.89 6.89-1.95 2.92-6.66 6.45 8.47 14.33-.74 3.96-6.16 10.41-6.52 11.82-25.54 9.15-4.9v-8.65l-1.9 2.72h-18.62l-8.76-8.25h-9.87l-6.08-4.32.63-6.16-5.48-2.44-27.87 7.38-7.29-5.28-4.61 2.71-17.94 19.35-14.96 4.53-2.06 10.3-5.03-.4-3.08 3.19 2.08 10.16 3.34 3.99-.42 14.69-2.85 7.94 1.23 2.94v12.09l7.84 11.02 4.85 2.57 5.63 4.35 3.28 7.61-.78 7.36-1.39 11.32v5.92l4.75 4 4.83 13.21 5.81 5.08 9.07 4.1 8.54-1.34 2.58-4.62 10.78-5.32Z" />
      <path class="Jeollabuk-do"
        d="m180.07 386.97 15.2-21.87-1.46-6.06-8.61 1.35-.14-.06-9.39-4.27-5.6-4.88-10.1 11.22h-7.29l-14.59-14.34-13.18.64-7.99-6.85-17.79 1.74-10.6 9.61-3.34 6.54-9.07-3.56 2.61 11.57-8.38 17.01 3.3 8.38L60.7 400l-9.4 7.87 7.11 7.11-1.78 9.91-9.43 6.97 14.06 23.17 6.85.95 15.25-18.13 3.66-11.62 13.43 2.15 3.94 13.44 5.64.62 15.69 11.76 33.84-5.32 7.34 3.37 4.27-16.96-2.26-12.09-.66-12.84 4.14-4.76-1.22-3.77.93-7.66 7.97-7.2Z" />
      <path class="Ulsan"
        d="m343.58 403.33-7.12-7.61-8.42 1.52-2.86-3.69-5.04 5.73.76 7.24-3.69 4.19 1.01 14.09-3.12 14.07 12.19 7.64 7.04 1.28 5.63 5.42-1.17-21.46 4.83 11.42 5.08-2.79 1.67-23.26-6.79-13.79Z" />
      <path class="Busan"
        d="m340.04 454.67-6.18-5.95-7.01-1.31-12.3-7.7-5.31 3.53-1.89 5.44-.11.08-15.69 13.19v15.09l-14.43 5.64-5.46-1.24-7.78 8.01.59 6.59 5.72 2.52 6.37-8.25 8.69-.69 2.25 14.84 14.98 2.21 2.79-9.15 24.13-12.69-1.02-15.5 11.94-9.65-.28-5.01Z" />
      <path class="Daegu"
        d="m274.37 347.55-7.4 4.67-3.79-2.69-3.54-.42-7.49 13.12v8.99l7.83 7.73-6.03 11.38-.72 9.37 17.04 2.27.36-5.39 5.14.62 5.35-2.22.69-3.68-.77-10.79 7.47-9.58 1.5-8.08-2.69-4.7-5.79-1.48v-9.12h-7.16Z" />
      <path class="Jeollanam-do"
        d="m162.03 548.57.51-7.37 4.06-2.29 13.42 1.92-.58-56.68-5.02-14.17-9.65-10.29 1.86-6.46-7.22-3.31-33.96 5.34-.17-.13-15.64-11.73-6.04-.66-3.94-13.48-11.96-1.91-3.52 11.06-15.67 18.62-7.87-1.09-14.25-23.5-1.44 1.07-.76 26.16-6.6 4.83-8.63-5.08-7.37 3.56-.25 13.97 5.33 5.84-1.27 8.63-8.38-11.68-5.08 6.86 4.32 16.25-3.3 4.83-5.84 20.83 7.87-9.14 8.13 1.02 9.4-5.08 7.62-.76-5.33 13.71-7.62-3.3-6.6 7.62 7.11 5.33-2.54 6.1h-6.35l-5.59-7.37-4.32 7.37 3.05 7.62 4.06 12.95L0 581.33l4.32 2.79v14.98l5.59-4.32 6.35.51 15.49-9.4-1.02-11.17 3.56-4.32 7.11 1.27 3.05 14.22-3.3 6.1 5.59 6.6 6.35 3.81 2.29-8.89 12.95-9.4 10.16-3.05 10.41 7.62 11.17-8.89 15.49 8.89 8.13-2.03 3.3-7.37.25-8.13h5.59l16.51-12.19 8.63 9.4 13.71-2.29-4.83-12.7-4.83-4.83.01.03ZM114.52 490c-.43 2.14-2.61 5.67-5.43 6.48-.94.27-2.37.36-3.85.36-2.81 0-5.8-.32-5.99-.34-.23-.04-4.89-.86-7.03-1.96-2.15-1.11-6.33-5.57-7.71-7.04-.22-.24-.41-.42-.6-.62-1.26-1.28-2.83-2.87-3.63-6.13-.87-3.55-.87-12.38 0-15.74.84-3.25 5.92-8.28 8.48-8.99 1.78-.5 2.74.93 3.38 1.87.25.37.59.87.78.91.45.03 2.29-1.12 3.52-1.87 1.96-1.21 3.2-1.95 3.89-1.95 1.65 0 9.6 9.04 10.35 10.42.93 1.73 3.49 11.58 3.86 13.87.39 2.43.39 8.74 0 10.72l-.02.01Z" />
      <path class="Gyeongsangnam-do"
        d="m284.4 490.69-7.31.58-6.58 8.52-6.98-3.07-.68-7.63 8.48-8.75 5.71 1.3 13.51-5.28v-14.88l15.94-13.39 1.92-5.49 5.69-3.79 3.11-14.08-.99-13.89-6.74-3.78-4.2 2.68-3.12 6.51H285.4l-14.89-13.23-17.82-2.39-9.82.9-7.81-7.15v-4.25l-8.41-12-9.03-.76-3.9-5.91-3.09 4.88-12.66-3.87-2.3-6.19-14.89 21.39-7.73 6.99-.86 7.07 1.33 4.1-4.25 4.89.63 12.37 2.29 12.23-4.47 17.75-1.83 6.35 9.44 10.13 5.11 14.51.58 56.92 1.58.23 8.89-2.04 2.7-11.68 13.3.26 3.56 8.12 5.84-1.52 4.57-16.25 9.91-.26 4.82-5.84 7.37 1.78 8.63 16 6.86-.26 7.87 9.65h7.62l3.3-19.04 6.86-2.8 2.01-11.4-2.31-15.24Z" />
      <path class="Gwangju"
        d="M109.78 465.89c-.9-1.67-8.36-9.65-9.5-9.9-.41 0-2.1 1.04-3.33 1.8-2.41 1.48-3.54 2.13-4.21 2-.61-.11-1.01-.7-1.44-1.33-.61-.91-1.1-1.53-1.84-1.53-.14 0-.28.02-.44.06-2.06.57-6.99 5.24-7.78 8.28-.85 3.25-.84 11.8 0 15.25.73 2.99 2.14 4.41 3.38 5.67.2.2.39.39.57.58 3.66 3.9 6.16 6.2 7.48 6.88 2 1.03 6.67 1.85 6.71 1.86.04 0 6.88.74 9.43.01 2.53-.72 4.39-4.05 4.73-5.71.37-1.86.37-8.06 0-10.36-.4-2.47-2.93-12.03-3.76-13.56Z" />
      <path class="Gyeongsangbuk-do"
        d="m362.16 339.56-10.41 16.25-6.86 2.29 1.52-12.45-2.28-11.94 5.08-8.88 2.03-14.48 8.13-18.03-2.29-5.34 3.3-2.28v-13.46l-9.4-24.13-4.31-33.01-6.86-11.94.35-2.57-7.95 4.19-2.95 8.22-7.88 1.23-10.18-8.1-4.31 10.69-22.35 2.88-2.39-4.77-10.16-6.89v9.89l-9.38 5.02-11.81 25.51-10.57 6.62-4.01 6.34-15.38.79-5.74-7.53-2.42 5.53-6.56 1.86 1.29 17.64-14.93-5.66-1.72 6.88 9.35 16.78.01.12.88 20.73 11.24 6.94 2.64 9.25-6.88 15.06-10.81 5.35-2.46 4.39 1.57 6.54 2.43 6.57 11.46 3.5 3.52-5.54 4.48 6.79 9.01.76 8.86 12.64v4.13l7.16 6.56 9.01-.83.79-9.71 5.73-10.82-7.6-7.5v-9.68l7.94-13.92 4.46.53 3.45 2.45 7.08-4.47h8.45v9.35l5.45 1.38 3.09 5.39-1.62 8.68-7.38 9.47.75 10.54-.82 4.33-6.09 2.54-4.35-.53-.31 4.63 14.53 12.92h15.75l2.97-6.2 4.94-3.16 7.15 4.02 3.27-3.73-.76-7.24 6.13-6.96 3.23 4.17 8.35-1.52 7.64 8.2 6.07 12.32.21-2.96 5.33-5.59v-10.66l9.65-33.78 1.78-16.51-5.33-6.09Z" />
    </g>
    <g class="lines" stroke-miterlimit="10" stroke-wclassth="3">
      <path class="Gyungang-line(dark-green)" stroke="#0DAD48"
        d="M188.21 147.16s3.1-.04 4.39-1.9c1.29-1.86 1.44-7.27 2.27-9.58.83-2.31 1.49-1.32 3.35-2.67 1.86-1.35 2-3.94 3.52-6.2 1.52-2.26 4.4-4.65 7.46-4.97 3.06-.32 7.64 3.92 12.16 2.7 4.52-1.22 3.6-5.26 7.59-6.86 3.99-1.6 6.94.59 10.89 0s5.62-3.4 5.62-3.4 2.11-4.05 4.38-6.69c2.27-2.64 17.86-11.53 21.52-11.85 3.66-.32 7.32 3.4 9.21.83 1.89-2.57-2.54-8.14-2.54-8.14" />
      <path class="Jungang-line(geen)" stroke="#16C25D"
        d="M120.91 118.71s6.18-5.24 9.63-4.43c3.45.81 1.29 6.56 3.56 7.99 2.27 1.43 1.7-1.75 5.08-2.32 3.38-.57 14.25 6.46 17.26 7.81 3.01 1.35 2.7 3.02 6.74 3.02s2.27-2.92 4.83-2.4 2.14 4.3 4.06 5.84c1.92 1.54 1.1-.73 4.32 0s4.81 6.5 7.08 8.77c2.27 2.27 9.72 7.08 13 11.41 3.28 4.33 4.19 28.95 10.57 32.36s6.33-2.08 11.46-3.25c5.13-1.17 9.4 9.2 9.4 9.2s3.4 13.03 6.66 17.09c3.26 4.06 19.27 8.89 21.19 12.34 1.92 3.45-.44 9.53.71 11.56 1.15 2.03 4.35 2.41 4.81 4.62.46 2.21-4.57 13.88-4.57 13.88" />
      <path class="HonamGosok-line(sky)" stroke="#3CA5DF"
        d="m48.51 555.6 23.37-39.11s14.49-23.44 15.49-30.39c1-6.95.13-6.41.77-12.91s4.78-49.93 6.6-57.94c1.82-8.01 5.51-41.23 6.48-47.88.97-6.65 10.59-43.15 14.35-49.83s35.5-36.9 35.5-36.9" />
      <path class="SuseoPyengtak-line(purple)" stroke="#5854A7"
        d="M125.97 133.05s-5.58 8.87-7.06 11.88c-1.48 3.01-2.71 4.57-3.25 9.47s1.45 9.59 2.07 12.48c.62 2.89 3.45 12.67 3.45 12.67l.41 8.57" />
      <path class="GyungbuGosok-line(pink)" stroke="#D32565"
        d="M111.13 127.24s1.12 4.51.26 8.48c-.86 3.97-6.42 7.79-6.42 13.08s2.81 3.71 3.08 7.58-.58 9.91 0 15.62c.58 5.71 12.05 14.53 13.52 15.72 1.47 1.19-3.63 25.94-3.63 29.9 0 3.96-5.43 30-2.81 36.86 2.62 6.86 32.59 20.22 35.94 26.16 3.35 5.94.14 26.49 3.17 35.05 3.03 8.56 26.66 14.37 32.26 17.81 5.6 3.44 16.04 18.06 23.79 18.76 7.75.7 15.53-1.03 23.06 0 5.029.688 15.68 4.344 22.15 13.24 4 5.5 13.012 1.013 16.5 2 10.5 2.97 19.21 2.07 28.5 3.5 9.29 1.43 25.71 1.59 29.5 6.5 6.561 8.5-1.82 25.76-3.5 31-1.213 3.783-5.104 31.965-11.5 48.5-2.465 6.371-10.507 8.823-11 14-1 10.5 6 12.5 0 18.5s-1.5 2.5-1.5 2.5" />
    </g>
    <g class="stations" fill="#fff">
      <g class="Gyungang-line(dark-green)" stroke="#0DAD48">
        <path class="Vector" d="M278.26 90.66a3 3 0 1 0 0-6 3 3 0 0 0 0 6Z" />
        <path class="Vector_2" d="M250.07 109.82a3 3 0 1 0 0-6 3 3 0 0 0 0 6Z" />
        <path class="Vector_3" d="M240.07 119.92a3 3 0 1 0 0-6 3 3 0 0 0 0 6Z" />
        <path class="Vector_4" d="M221.6 126.78a3 3 0 1 0 0-6 3 3 0 0 0 0 6Z" />
        <path class="Vector_5" d="M201.98 129.04a3 3 0 1 0 0-6 3 3 0 0 0 0 6Z" />
        <path class="Vector_6" d="M193.83 145.49a3 3 0 1 0 0-6 3 3 0 0 0 0 6Z" />
      </g>
      <g class="Jungang-line(geen)" stroke="#16C25D">
        <path class="Vector_7" d="M120.14 120.94a3 3 0 1 0 0-6 3 3 0 0 0 0 6Z" />
        <path class="Vector_8" d="M155.67 129.99a3 3 0 1 0 0-6 3 3 0 0 0 0 6Z" />
        <path class="Vector_9" d="M182.69 145.22a3 3 0 1 0 0-6 3 3 0 0 0 0 6Z" />
        <path class="Vector_10" d="M217.72 185.74a3 3 0 1 0 0-6 3 3 0 0 0 0 6Z" />
        <path class="Vector_11" d="M254.98 224.38a3 3 0 1 0 0-6 3 3 0 0 0 0 6Z" />
        <path class="Vector_12" d="M255.93 254.44a3 3 0 1 0 0-6 3 3 0 0 0 0 6Z" />
        <path class="Vector_13" d="M233.78 212.04a3 3 0 1 0 0-6 3 3 0 0 0 0 6Z" />
        <path class="Vector_14" d="M195.69 156.63a3 3 0 1 0 0-6 3 3 0 0 0 0 6Z" />
      </g>
      <g class="SuseoPyengtak-line(purple)" stroke="#5854A7">
        <path class="Suseo-station" d="M126.2 135.28a3 3 0 1 0 0-6 3 3 0 0 0 0 6Z" />
        <path class="Vector_15" d="M121.41 181.52a3 3 0 1 0 0-6 3 3 0 0 0 0 6Z" />
        <path class="Vector_16" d="M115.89 156.63a3 3 0 1 0 0-6 3 3 0 0 0 0 6Z" />
      </g>
      <g class="GyungbuGosok-line(pink)" stroke="#D32565">
        <path class="Vector_17" d="M111.36 129.47a3 3 0 1 0 0-6 3 3 0 0 0 0 6Z" />
        <path class="Vector_18" d="M105.2 151.03a3 3 0 1 0 0-6 3 3 0 0 0 0 6Z" />
        <path class="Vector_19" d="M115.36 256.71a3 3 0 1 0 0-6 3 3 0 0 0 0 6Z" />
        <path class="Vector_20" d="M118.17 219.85a3 3 0 1 0 0-6 3 3 0 0 0 0 6Z" />
        <path class="Osong-station" d="M151.29 282.86a3 3 0 1 0 0-6 3 3 0 0 0 0 6Z" />
        <path class="Vector_21" d="M154.47 317.91a3 3 0 1 0 0-6 3 3 0 0 0 0 6Z" />
        <path class="Vector_22" d="M233.58 354.48a3 3 0 1 0 0-6 3 3 0 0 0 0 6Z" />
        <path class="Vector_23" d="M272.18 370.6a3 3 0 1 0 0-6 3 3 0 0 0 0 6Z" />
        <path class="Vector_24" d="M330.09 380.8a3 3 0 1 0 0-6 3 3 0 0 0 0 6Z" />
        <path class="Vector_25" d="M326.28 411.56a3 3 0 1 0 0-6 3 3 0 0 0 0 6Z" />
        <path class="Busan" d="M302.33 494.99a3 3 0 1 0 0-6 3 3 0 0 0 0 6Z" />
      </g>
      <g class="HonamGosok-line(sky)" stroke="#3CA5DF">
        <path class="Vector_26" d="M88.36 475.42a3 3 0 1 0 0-6 3 3 0 0 0 0 6Z" />
        <path class="Vector_27" d="M94.97 417.48a3 3 0 1 0 0-6 3 3 0 0 0 0 6Z" />
        <path class="Iksan-station" d="M101.44 369.6a3 3 0 1 0 0-6 3 3 0 0 0 0 6Z" />
        <path class="Vector_28" d="M115.79 319.76a3 3 0 1 0 0-6 3 3 0 0 0 0 6Z" />
        <path class="Vector_29" d="M72.11 518.72a3 3 0 1 0 0-6 3 3 0 0 0 0 6Z" />
        <path class="Vector_30" d="M48.74 557.83a3 3 0 1 0 0-6 3 3 0 0 0 0 6Z" />
      </g>
    </g>
  </g>
  <defs>
    <clipPath class="clip0_1027_20754">
      <rect wclassth="367.49" height="602.41" fill="#fff" />
    </clipPath>
  </defs>
</svg>